ply
format ascii 1.0
comment VCGLIB generated
element vertex 333
property float x
property float y
property float z
property float nx
property float ny
property float nz
property uchar red
property uchar green
property uchar blue
property uchar alpha
property float texture_u
property float texture_v
element face 212
property list uchar int vertex_indices
end_header
-1.021566 0.2170569 1.73666 0.1424169 0.9201811 0.3646701 120 120 120 255 0.7385037 0.007307574
-1.184189 0.2212488 1.4547 0.007255053 0.9999167 0.01068129 120 120 120 255 0.7385037 0.007307574
-1.458317 0.2212488 1.548336 -0.5251421 0.7608792 0.3811674 120 120 120 255 0.7385036 0.007307574
-1.367666 0.2169144 1.68008 -0.3320164 0.8854514 0.3251784 120 120 120 255 0.7385036 0.007307574
-0.9958925 0.01458819 2.024227 0.1097815 0.8217491 0.5591748 120 120 120 255 0.7089952 0.007307574
-1.507191 0.01458821 1.90263 -0.4416122 0.7841351 0.436017 120 120 120 255 0.7089952 0.007307574
-1.541521 0.0145882 1.563671 -0.8005677 0.5465847 0.245635 120 120 120 255 0.677228 0.007307574
-0.7414217 0.01458819 1.858303 0.5301206 0.7735617 0.3472385 120 120 120 255 0.677228 0.007307574
-0.808692 0.01458819 1.287388 0.9314716 0.3468643 -0.1097542 120 120 120 255 0.677228 0.007307574
-0.8774433 0.2187338 1.349079 0.6502916 0.7578116 -0.05331482 120 120 120 255 0.677228 0.007307574
-0.8794785 0.2163221 1.603413 0.4612679 0.8775907 0.1306391 120 120 120 255 0.677228 0.007307574
-2.430581 0.1773724 -1.126598 -0.2601131 0.9627388 -0.07399422 120 120 120 255 0.7385037 0.007307574
-2.307236 0.17751 -1.115902 0.002880423 0.9989342 -0.04606709 120 120 120 255 0.7385037 0.007307574
-2.275946 0.1565595 -1.319569 0.2298064 0.8421833 -0.4877667 120 120 120 255 0.7385036 0.007307574
-2.339157 0.1773724 -1.321987 0.04996046 0.9092993 -0.413133 120 120 120 255 0.7385036 0.007307574
-2.76157 0 -1.138264 -0.4888572 0.8703492 -0.05925379 120 120 120 255 0.7089952 0.007307574
-2.610104 0 -1.467236 -0.3143021 0.840897 -0.4405752 120 120 120 255 0.7089952 0.007307574
-2.328246 0 -1.419109 0.1550238 0.4817887 -0.8624658 120 120 120 255 0.677228 0.007307574
-2.686687 0 -0.8251228 -0.4788689 0.797253 0.367522 120 120 120 255 0.677228 0.007307574
-2.327834 0 -0.7429314 -0.2028649 0.4175444 0.8857214 120 120 120 255 0.677228 0.007307574
-2.283404 0.1757546 -0.815609 -0.1702024 0.8157732 0.5527614 120 120 120 255 0.677228 0.007307574
-2.424668 0.1766827 -0.8866539 -0.282703 0.9172295 0.2806581 120 120 120 255 0.677228 0.007307574
-2.45427 0.2170569 0.3318977 -0.3646705 0.9201809 0.1424172 120 120 120 255 0.7385037 0.007307574
-2.17231 0.2212488 0.1692772 -0.01068125 0.9999167 0.007255142 120 120 120 255 0.7385037 0.007307574
-2.265949 0.2212488 -0.104847 -0.3811514 0.7608832 -0.525148 120 120 120 255 0.7385036 0.007307574
-2.397693 0.2169144 -0.01420212 -0.3251787 0.8854482 -0.3320245 120 120 120 255 0.7385036 0.007307574
-2.741835 0.01458819 0.3575783 -0.5591748 0.8217485 0.1097865 120 120 120 255 0.7089952 0.007307574
-2.620242 0.01458821 -0.1537209 -0.4360247 0.7841309 -0.441612 120 120 120 255 0.7089952 0.007307574
-2.281279 0.0145882 -0.1880531 -0.245629 0.5465747 -0.8005764 120 120 120 255 0.677228 0.007307574
-2.575915 0.01458819 0.6120415 -0.3472401 0.7735632 0.5301173 120 120 120 255 0.677228 0.007307574
-2.004999 0.01458819 0.5447731 0.1097515 0.346852 0.9314764 120 120 120 255 0.677228 0.007307574
-2.06669 0.2187338 0.4760246 0.05331251 0.7578067 0.6502975 120 120 120 255 0.677228 0.007307574
-2.321019 0.2163221 0.4739876 -0.130639 0.8775902 0.4612688 120 120 120 255 0.677228 0.007307574
-2.377533 0.3110173 -1.663197 -0.41886 0.8331379 -0.3611615 120 120 120 255 0.7385037 0.007307574
-2.098329 0.3112315 -1.493153 -0.002606477 0.9999921 0.00302029 120 120 120 255 0.7385037 0.007307574
-1.968311 0.3112315 -1.578732 0.4718038 0.8497095 -0.2353614 120 120 120 255 0.7385036 0.007307574
-2.020625 0.3110173 -1.689373 0.3469361 0.835806 -0.4255159 120 120 120 255 0.7385036 0.007307574
-2.515834 0.01637817 -1.875996 -0.4695526 0.7091401 -0.5259665 120 120 120 255 0.7089952 0.007307574
-2.026795 0.01637817 -2.024227 0.2101916 0.733792 -0.6460409 120 120 120 255 0.7089952 0.007307574
-2.658824 0.01637817 -1.458035 -0.771686 0.6168309 0.1549852 120 120 120 255 0.677228 0.007307574
-2.307442 0.01637817 -1.191936 -0.578876 0.2838789 0.7644053 120 120 120 255 0.677228 0.007307574
-2.266735 0.308501 -1.269596 -0.4144287 0.7862856 0.4582616 120 120 120 255 0.677228 0.007307574
-2.401261 0.3099447 -1.432842 -0.5033836 0.8484356 0.1635912 120 120 120 255 0.677228 0.007307574
-1.810572 0.01637817 -1.601734 0.7924457 0.4555791 -0.4055584 120 120 120 255 0.677228 0.007307574
2.430581 0.1773724 1.107357 0.260112 0.9627395 0.07398956 120 120 120 255 0.7385037 0.007307574
2.307236 0.17751 1.096668 -0.002877948 0.998934 0.0460714 120 120 120 255 0.7385037 0.007307574
2.275946 0.1565595 1.300327 -0.2298623 0.8421844 0.4877385 120 120 120 255 0.7385036 0.007307574
2.339157 0.1773724 1.302753 -0.0499756 0.9092848 0.4131628 120 120 120 255 0.7385036 0.007307574
2.76157 0 1.11903 0.4888568 0.8703493 0.05925596 120 120 120 255 0.7089952 0.007307574
2.610104 0 1.447994 0.3143074 0.8408915 0.4405819 120 120 120 255 0.7089952 0.007307574
2.328246 0 1.399868 -0.1550423 0.4817598 0.8624787 120 120 120 255 0.677228 0.007307574
2.686687 0 0.8058815 0.4788624 0.7972581 -0.3675193 120 120 120 255 0.677228 0.007307574
2.327834 0 0.72369 0.2028617 0.4175762 -0.8857073 120 120 120 255 0.677228 0.007307574
2.283404 0.1757546 0.7963753 0.1701988 0.8157828 -0.5527484 120 120 120 255 0.677228 0.007307574
2.424668 0.1766827 0.8674202 0.2827002 0.9172329 -0.28065 120 120 120 255 0.677228 0.007307574
2.45427 0.2170569 -0.3511391 0.3646723 0.9201795 -0.1424216 120 120 120 255 0.7385037 0.007307574
2.17231 0.2212488 -0.1885185 0.01068129 0.9999167 -0.007255078 120 120 120 255 0.7385037 0.007307574
2.265949 0.2212488 0.08561325 0.3811848 0.7608629 0.5251532 120 120 120 255 0.7385036 0.007307574
2.397693 0.2169144 -0.005039215 0.3251798 0.8854504 0.3320176 120 120 120 255 0.7385036 0.007307574
2.741835 0.01458819 -0.376812 0.5591763 0.821748 -0.1097822 120 120 120 255 0.7089952 0.007307574
2.620242 0.01458821 0.1344872 0.4360141 0.7841364 0.4416127 120 120 120 255 0.7089952 0.007307574
2.281279 0.0145882 0.1688118 0.2456336 0.5465721 0.8005767 120 120 120 255 0.677228 0.007307574
2.575915 0.01458819 -0.6312828 0.3472429 0.7735643 -0.5301139 120 120 120 255 0.677228 0.007307574
2.004999 0.01458819 -0.5640144 -0.1097515 0.346852 -0.9314764 120 120 120 255 0.677228 0.007307574
2.06669 0.2187338 -0.495266 -0.05331251 0.7578067 -0.6502975 120 120 120 255 0.677228 0.007307574
2.321019 0.2163221 -0.4932289 0.1306404 0.8775901 -0.4612686 120 120 120 255 0.677228 0.007307574
2.377533 0.3110173 1.643955 0.41886 0.8331379 0.3611615 120 120 120 255 0.7385037 0.007307574
2.098329 0.3112315 1.473911 0.002606511 0.9999921 -0.003020346 120 120 120 255 0.7385037 0.007307574
1.968311 0.3112315 1.55949 -0.4718038 0.8497095 0.2353614 120 120 120 255 0.7385036 0.007307574
2.020625 0.3110173 1.670132 -0.3469361 0.835806 0.4255159 120 120 120 255 0.7385036 0.007307574
2.515834 0.01637817 1.856754 0.4695514 0.7091407 0.5259668 120 120 120 255 0.7089952 0.007307574
2.026795 0.01637817 2.004986 -0.2101916 0.733792 0.6460409 120 120 120 255 0.7089952 0.007307574
2.658824 0.01637817 1.438801 0.7716843 0.6168348 -0.1549784 120 120 120 255 0.677228 0.007307574
2.307442 0.01637817 1.172695 0.5788833 0.2838966 -0.7643931 120 120 120 255 0.677228 0.007307574
2.266735 0.308501 1.250362 0.4144248 0.7862897 -0.4582583 120 120 120 255 0.677228 0.007307574
2.401261 0.3099447 1.413601 0.5033864 0.8484313 -0.1636048 120 120 120 255 0.677228 0.007307574
1.810572 0.01637817 1.582493 -0.7924457 0.4555791 0.4055584 120 120 120 255 0.677228 0.007307574
-2.191079 0.506609 1.471004 -0.3015114 0.904534 0.3015113 120 120 120 255 0.7341595 0.008004475
2.195066 0.506609 1.471004 0.3015116 0.904534 0.3015113 120 120 120 255 0.7341595 0.008004475
2.195066 0.6424479 1.471004 0.5773503 0.5773503 0.5773503 120 120 120 255 0.7341595 0.008004475
-2.191079 0.6424479 1.471004 -0.5773506 0.5773503 0.57735 120 120 120 255 0.7341595 0.008004475
1.949973 0.5072404 1.244366 -0.5773503 0.5773503 -0.5773503 120 120 120 255 0.7322254 0.5311569
1.50874 0.5072404 0.5153236 0.3015113 0.904534 0.3015115 120 120 120 255 0.7322254 0.5311569
-1.504753 0.5072404 0.5153236 -0.3015113 0.904534 0.3015113 120 120 120 255 0.7322254 0.5311569
-1.945999 0.5072404 1.244366 0.5773501 0.5773503 -0.5773505 120 120 120 255 0.7322254 0.5311569
-2.191079 0.6424479 -1.481556 -0.5773503 0.5773504 -0.5773501 120 120 120 255 0.7341595 0.008004475
2.195066 0.6424479 -1.481556 0.5773507 0.5773501 -0.5773501 120 120 120 255 0.7341595 0.008004475
2.195066 0.506609 -1.481556 0.3015114 0.904534 -0.3015113 120 120 120 255 0.7341595 0.008004475
-2.191079 0.506609 -1.481556 -0.3015116 0.904534 -0.3015113 120 120 120 255 0.7341595 0.008004475
1.949973 0.6424479 1.244366 -0.3015111 0.9045342 -0.3015113 120 120 120 255 0.764617 0.008004475
-1.945999 0.6424479 1.244366 0.3015114 0.9045341 -0.3015113 120 120 120 255 0.7646171 0.008004475
1.949973 0.6424479 -1.25491 -0.3015114 0.9045341 0.3015113 120 120 120 255 0.764617 0.008004475
1.50874 0.6424479 -1.25491 0.3015113 0.904534 0.3015113 120 120 120 255 0.764617 0.008004475
-1.945999 0.6424479 -1.25491 0.3015112 0.9045341 0.3015114 120 120 120 255 0.764617 0.008004475
-1.504753 0.6424479 -1.25491 -0.5773503 0.5773503 0.5773503 120 120 120 255 0.7646171 0.008004475
-1.504753 0.5072404 -1.25491 -0.5773503 0.5773502 0.5773503 120 120 120 255 0.7322254 0.5311569
-1.945999 0.5072404 -1.25491 0.5773503 0.5773503 0.5773503 120 120 120 255 0.7322254 0.5311569
1.50874 0.5072404 -1.25491 0.5773503 0.5773503 0.5773503 120 120 120 255 0.7322254 0.5311569
1.949973 0.5072404 -1.25491 -0.57735 0.5773504 0.5773504 120 120 120 255 0.7322254 0.5311569
1.50874 0.6424479 0.5153236 0.5773503 0.5773503 0.5773503 120 120 120 255 0.7646171 0.008004475
-1.504753 0.6424479 0.5153236 -0.5773502 0.5773503 0.5773504 120 120 120 255 0.7646171 0.008004475
1.181273 0.9959255 0.2435722 0.3015112 0.9045342 0.3015111 120 120 120 255 0.767072 0.008256119
-1.177313 0.9959255 0.2435722 -0.3015112 0.9045342 0.301511 120 120 120 255 0.767072 0.008256119
-1.356056 0.9959255 0.352459 -0.5773502 0.5773502 0.5773504 120 120 120 255 0.767072 0.008256119
1.360011 0.9959255 0.352459 0.5773503 0.5773503 0.5773503 120 120 120 255 0.767072 0.008256119
-1.177313 2.626038 0.2435722 -0.66503 0.4433135 0.6010061 120 120 120 255 0.765033 0.008834969
0.001980782 3.117525 0.2435722 1.277132e-07 0.7766733 0.6299037 120 120 120 255 0.765033 0.008834969
0.001980782 3.117525 -1.193676 1.356953e-07 0.7766733 -0.6299037 120 120 120 255 0.765033 0.008834969
-1.177313 2.626038 -1.193676 -0.66503 0.4433135 -0.6010062 120 120 120 255 0.765033 0.008834969
1.360011 0.9959255 -1.302593 0.5773506 0.5773497 -0.5773506 120 120 120 255 0.767072 0.008256119
-1.356056 0.9959255 -1.302593 -0.5773503 0.5773501 -0.5773504 120 120 120 255 0.767072 0.008256119
-1.177313 0.9959257 -1.193676 -0.3015118 0.9045337 -0.301512 120 120 120 255 0.767072 0.008256119
1.181273 0.9959257 -1.193676 0.3015117 0.9045337 -0.3015121 120 120 120 255 0.767072 0.008256119
-1.356056 0.642448 0.352459 -0.7071068 0 0.7071068 120 120 120 255 0.7345755 0.008834969
1.360011 0.642448 0.352459 0.7071067 0 0.7071068 120 120 120 255 0.7345755 0.008834969
1.360011 0.642448 -1.302593 0.7071067 0 -0.7071068 120 120 120 255 0.7048014 0.008834969
-1.356056 0.642448 -1.302593 -0.7071068 0 -0.7071068 120 120 120 255 0.7345755 0.008834969
1.181273 2.626038 -1.193676 0.6650301 0.4433134 -0.6010061 120 120 120 255 0.7048014 0.008834969
1.181273 2.626038 0.2435722 0.6650301 0.4433134 0.6010061 120 120 120 255 0.7048015 0.008834969
0.001980782 2.920141 -1.039768 1.508267e-06 -0.7741654 0.6329834 120 120 120 255 0.670628 0.008834969
-1.075384 2.494381 -1.039768 0.6616658 -0.4499781 0.599765 120 120 120 255 0.670628 0.008834969
-1.075384 1.14922 -1.039768 0.5773503 0.5773503 0.5773503 120 120 120 255 0.670628 0.008834969
1.079358 1.14922 -1.039768 -0.5773503 0.5773503 0.5773503 120 120 120 255 0.670628 0.008834969
1.079358 2.494381 -1.039768 -0.6616651 -0.4499795 0.5997648 120 120 120 255 0.670628 0.008834969
0.8318243 1.27005 0.2435722 -0.3015114 0.3015113 0.904534 120 120 120 255 0.7345755 0.008834969
-0.8278694 1.27005 0.2435722 0.3015114 0.3015113 0.904534 120 120 120 255 0.7345755 0.008834969
0.8318243 2.335478 0.2435722 -0.4311387 -0.2872142 0.8553523 120 120 120 255 0.7345755 0.008834969
0.001980782 2.681908 0.2435722 -8.417946e-07 -0.5933923 0.8049135 120 120 120 255 0.7345755 0.008834969
-0.8278694 2.335478 0.2435722 0.4311378 -0.2872144 0.8553526 120 120 120 255 0.7345755 0.008834969
0.8318243 1.27005 -0.005306244 -0.3015113 0.3015113 -0.904534 120 120 120 255 0.7678654 0.006670158
-0.8278694 1.27005 -0.005306244 0.3015114 0.3015113 -0.904534 120 120 120 255 0.7678654 0.006670158
0.8318243 2.335478 -0.005306244 -0.4311387 -0.2872142 -0.8553523 120 120 120 255 0.6729072 0.008834969
0.001980782 2.681908 -0.005306244 -8.295948e-07 -0.5933923 -0.8049135 120 120 120 255 0.6729072 0.008834969
-0.8278694 2.335478 -0.005306244 0.4311378 -0.2872145 -0.8553526 120 120 120 255 0.6729072 0.008834969
1.079358 1.14922 -0.005306244 -0.5773503 0.5773503 -0.5773501 120 120 120 255 0.6386229 0.008834969
-1.075384 1.14922 -0.005306244 0.5773503 0.5773503 -0.5773501 120 120 120 255 0.638623 0.008834969
1.079358 2.494381 -0.005306244 -0.6616651 -0.4499796 -0.5997647 120 120 120 255 0.6386229 0.008834969
0.001980782 2.920141 -0.005306244 1.516164e-06 -0.7741655 -0.6329833 120 120 120 255 0.638623 0.008834969
-1.075384 2.494381 -0.005306244 0.6616658 -0.4499781 -0.599765 120 120 120 255 0.638623 0.008834969
-2.324549 0.506609 -1.609661 -0.5773505 0.5773501 -0.5773503 120 120 120 255 0.7647896 0.00737524
-2.324549 0.506609 1.59911 -0.57735 0.5773507 0.5773501 120 120 120 255 0.7647896 0.00737524
2.328536 0.506609 1.59911 0.5773505 0.5773501 0.5773503 120 120 120 255 0.7647896 0.00737524
2.328536 0.506609 -1.609661 0.57735 0.5773507 -0.5773501 120 120 120 255 0.7647896 0.00737524
-2.324549 0.01637816 -1.609661 -0.7071066 0 -0.7071069 120 120 120 255 0.7043855 0.008004475
-2.324549 0.01637816 1.59911 -0.7071069 0 0.7071066 120 120 120 255 0.7043855 0.008004475
2.328536 0.01637816 1.59911 0.7071066 0 0.7071069 120 120 120 255 0.7341595 0.008004475
2.328536 0.01637816 -1.609661 0.7071069 0 -0.7071066 120 120 120 255 0.7043854 0.008004475
-1.021566 0.2170569 1.73666 0.1424169 0.9201811 0.3646701 120 120 120 255 0.7089952 0.007307574
-1.367666 0.2169144 1.68008 -0.3320164 0.8854514 0.3251784 120 120 120 255 0.7089952 0.007307574
-1.507191 0.01458821 1.90263 -0.4416122 0.7841351 0.436017 120 120 120 255 0.677228 0.007307574
-1.367666 0.2169144 1.68008 -0.3320164 0.8854514 0.3251784 120 120 120 255 0.677228 0.007307574
-1.458317 0.2212488 1.548336 -0.5251421 0.7608792 0.3811674 120 120 120 255 0.677228 0.007307574
-0.8794785 0.2163221 1.603413 0.4612679 0.8775907 0.1306391 120 120 120 255 0.7089952 0.007307574
-0.7414217 0.01458819 1.858303 0.5301206 0.7735617 0.3472385 120 120 120 255 0.7089952 0.007307574
-0.8774433 0.2187338 1.349079 0.6502916 0.7578116 -0.05331482 120 120 120 255 0.7385037 0.007307574
-0.8794785 0.2163221 1.603413 0.4612679 0.8775907 0.1306391 120 120 120 255 0.7385037 0.007307574
-2.430581 0.1773724 -1.126598 -0.2601131 0.9627388 -0.07399422 120 120 120 255 0.7089952 0.007307574
-2.339157 0.1773724 -1.321987 0.04996046 0.9092993 -0.413133 120 120 120 255 0.7089952 0.007307574
-2.610104 0 -1.467236 -0.3143021 0.840897 -0.4405752 120 120 120 255 0.677228 0.007307574
-2.339157 0.1773724 -1.321987 0.04996046 0.9092993 -0.413133 120 120 120 255 0.677228 0.007307574
-2.275946 0.1565595 -1.319569 0.2298064 0.8421833 -0.4877667 120 120 120 255 0.677228 0.007307574
-2.424668 0.1766827 -0.8866539 -0.282703 0.9172295 0.2806581 120 120 120 255 0.7089952 0.007307574
-2.686687 0 -0.8251228 -0.4788689 0.797253 0.367522 120 120 120 255 0.7089952 0.007307574
-2.283404 0.1757546 -0.815609 -0.1702024 0.8157732 0.5527614 120 120 120 255 0.7385037 0.007307574
-2.424668 0.1766827 -0.8866539 -0.282703 0.9172295 0.2806581 120 120 120 255 0.7385037 0.007307574
-2.45427 0.2170569 0.3318977 -0.3646705 0.9201809 0.1424172 120 120 120 255 0.7089952 0.007307574
-2.397693 0.2169144 -0.01420212 -0.3251787 0.8854482 -0.3320245 120 120 120 255 0.7089952 0.007307574
-2.620242 0.01458821 -0.1537209 -0.4360247 0.7841309 -0.441612 120 120 120 255 0.677228 0.007307574
-2.397693 0.2169144 -0.01420212 -0.3251787 0.8854482 -0.3320245 120 120 120 255 0.677228 0.007307574
-2.265949 0.2212488 -0.104847 -0.3811514 0.7608832 -0.525148 120 120 120 255 0.677228 0.007307574
-2.321019 0.2163221 0.4739876 -0.130639 0.8775902 0.4612688 120 120 120 255 0.7089952 0.007307574
-2.575915 0.01458819 0.6120415 -0.3472401 0.7735632 0.5301173 120 120 120 255 0.7089952 0.007307574
-2.06669 0.2187338 0.4760246 0.05331251 0.7578067 0.6502975 120 120 120 255 0.7385037 0.007307574
-2.321019 0.2163221 0.4739876 -0.130639 0.8775902 0.4612688 120 120 120 255 0.7385037 0.007307574
-2.377533 0.3110173 -1.663197 -0.41886 0.8331379 -0.3611615 120 120 120 255 0.7089952 0.007307574
-2.020625 0.3110173 -1.689373 0.3469361 0.835806 -0.4255159 120 120 120 255 0.7089952 0.007307574
-2.401261 0.3099447 -1.432842 -0.5033836 0.8484356 0.1635912 120 120 120 255 0.7089952 0.007307574
-2.658824 0.01637817 -1.458035 -0.771686 0.6168309 0.1549852 120 120 120 255 0.7089952 0.007307574
-2.266735 0.308501 -1.269596 -0.4144287 0.7862856 0.4582616 120 120 120 255 0.7385037 0.007307574
-2.401261 0.3099447 -1.432842 -0.5033836 0.8484356 0.1635912 120 120 120 255 0.7385037 0.007307574
-1.968311 0.3112315 -1.578732 0.4718038 0.8497095 -0.2353614 120 120 120 255 0.677228 0.007307574
-2.026795 0.01637817 -2.024227 0.2101916 0.733792 -0.6460409 120 120 120 255 0.677228 0.007307574
-2.020625 0.3110173 -1.689373 0.3469361 0.835806 -0.4255159 120 120 120 255 0.677228 0.007307574
2.430581 0.1773724 1.107357 0.260112 0.9627395 0.07398956 120 120 120 255 0.7089952 0.007307574
2.339157 0.1773724 1.302753 -0.0499756 0.9092848 0.4131628 120 120 120 255 0.7089952 0.007307574
2.610104 0 1.447994 0.3143074 0.8408915 0.4405819 120 120 120 255 0.677228 0.007307574
2.339157 0.1773724 1.302753 -0.0499756 0.9092848 0.4131628 120 120 120 255 0.677228 0.007307574
2.275946 0.1565595 1.300327 -0.2298623 0.8421844 0.4877385 120 120 120 255 0.677228 0.007307574
2.424668 0.1766827 0.8674202 0.2827002 0.9172329 -0.28065 120 120 120 255 0.7089952 0.007307574
2.686687 0 0.8058815 0.4788624 0.7972581 -0.3675193 120 120 120 255 0.7089952 0.007307574
2.283404 0.1757546 0.7963753 0.1701988 0.8157828 -0.5527484 120 120 120 255 0.7385037 0.007307574
2.424668 0.1766827 0.8674202 0.2827002 0.9172329 -0.28065 120 120 120 255 0.7385037 0.007307574
2.45427 0.2170569 -0.3511391 0.3646723 0.9201795 -0.1424216 120 120 120 255 0.7089952 0.007307574
2.397693 0.2169144 -0.005039215 0.3251798 0.8854504 0.3320176 120 120 120 255 0.7089952 0.007307574
2.620242 0.01458821 0.1344872 0.4360141 0.7841364 0.4416127 120 120 120 255 0.677228 0.007307574
2.397693 0.2169144 -0.005039215 0.3251798 0.8854504 0.3320176 120 120 120 255 0.677228 0.007307574
2.265949 0.2212488 0.08561325 0.3811848 0.7608629 0.5251532 120 120 120 255 0.677228 0.007307574
2.321019 0.2163221 -0.4932289 0.1306404 0.8775901 -0.4612686 120 120 120 255 0.7089952 0.007307574
2.575915 0.01458819 -0.6312828 0.3472429 0.7735643 -0.5301139 120 120 120 255 0.7089952 0.007307574
2.06669 0.2187338 -0.495266 -0.05331251 0.7578067 -0.6502975 120 120 120 255 0.7385037 0.007307574
2.321019 0.2163221 -0.4932289 0.1306404 0.8775901 -0.4612686 120 120 120 255 0.7385037 0.007307574
2.377533 0.3110173 1.643955 0.41886 0.8331379 0.3611615 120 120 120 255 0.7089952 0.007307574
2.020625 0.3110173 1.670132 -0.3469361 0.835806 0.4255159 120 120 120 255 0.7089952 0.007307574
2.401261 0.3099447 1.413601 0.5033864 0.8484313 -0.1636048 120 120 120 255 0.7089952 0.007307574
2.658824 0.01637817 1.438801 0.7716843 0.6168348 -0.1549784 120 120 120 255 0.7089952 0.007307574
2.266735 0.308501 1.250362 0.4144248 0.7862897 -0.4582583 120 120 120 255 0.7385037 0.007307574
2.401261 0.3099447 1.413601 0.5033864 0.8484313 -0.1636048 120 120 120 255 0.7385037 0.007307574
1.968311 0.3112315 1.55949 -0.4718038 0.8497095 0.2353614 120 120 120 255 0.677228 0.007307574
2.026795 0.01637817 2.004986 -0.2101916 0.733792 0.6460409 120 120 120 255 0.677228 0.007307574
2.020625 0.3110173 1.670132 -0.3469361 0.835806 0.4255159 120 120 120 255 0.677228 0.007307574
2.195066 0.506609 1.471004 0.3015116 0.904534 0.3015113 120 120 120 255 0.7043855 0.008004475
2.195066 0.506609 -1.481556 0.3015114 0.904534 -0.3015113 120 120 120 255 0.7043854 0.008004475
2.195066 0.6424479 -1.481556 0.5773507 0.5773501 -0.5773501 120 120 120 255 0.7043854 0.008004475
2.195066 0.6424479 1.471004 0.5773503 0.5773503 0.5773503 120 120 120 255 0.7043855 0.008004475
-2.191079 0.506609 -1.481556 -0.3015116 0.904534 -0.3015113 120 120 120 255 0.7043855 0.008004475
-2.191079 0.506609 1.471004 -0.3015114 0.904534 0.3015113 120 120 120 255 0.7043855 0.008004475
-2.191079 0.6424479 1.471004 -0.5773506 0.5773503 0.57735 120 120 120 255 0.7043855 0.008004475
-2.191079 0.6424479 -1.481556 -0.5773503 0.5773504 -0.5773502 120 120 120 255 0.7043855 0.008004475
-2.191079 0.6424479 1.471004 -0.5773506 0.5773503 0.57735 120 120 120 255 0.764617 0.008004475
2.195066 0.6424479 1.471004 0.5773503 0.5773503 0.5773503 120 120 120 255 0.764617 0.008004475
2.195066 0.6424479 -1.481556 0.5773507 0.5773501 -0.5773501 120 120 120 255 0.764617 0.008004475
-2.191079 0.6424479 -1.481556 -0.5773503 0.5773504 -0.5773501 120 120 120 255 0.764617 0.008004475
-1.945999 0.6424479 1.244366 0.3015114 0.9045341 -0.3015113 120 120 120 255 0.764617 0.008004475
1.50874 0.5072404 0.5153236 0.3015113 0.904534 0.3015115 120 120 120 255 0.7372304 0.008004475
1.50874 0.6424479 0.5153236 0.5773503 0.5773503 0.5773503 120 120 120 255 0.7372304 0.008004475
-1.504753 0.6424479 0.5153236 -0.5773502 0.5773503 0.5773504 120 120 120 255 0.7372304 0.008004475
-1.504753 0.5072404 0.5153236 -0.3015113 0.904534 0.3015113 120 120 120 255 0.7372304 0.008004475
1.949973 0.5072404 1.244366 -0.5773503 0.5773503 -0.5773503 120 120 120 255 0.7372303 0.008004475
-1.945999 0.5072404 1.244366 0.5773501 0.5773503 -0.5773505 120 120 120 255 0.7372304 0.008004475
-1.945999 0.6424479 1.244366 0.3015114 0.9045341 -0.3015113 120 120 120 255 0.7372304 0.008004475
1.949973 0.6424479 1.244366 -0.3015111 0.9045342 -0.3015113 120 120 120 255 0.7372303 0.008004475
-1.504753 0.6424479 0.5153236 -0.5773502 0.5773503 0.5773504 120 120 120 255 0.7098438 0.008004475
-1.504753 0.6424479 -1.25491 -0.5773503 0.5773503 0.5773503 120 120 120 255 0.7098438 0.008004475
-1.504753 0.5072404 -1.25491 -0.5773503 0.5773502 0.5773503 120 120 120 255 0.7098438 0.008004475
-1.504753 0.5072404 0.5153236 -0.3015113 0.904534 0.3015113 120 120 120 255 0.7098438 0.008004475
-1.504753 0.6424479 -1.25491 -0.5773503 0.5773503 0.5773503 120 120 120 255 0.7372304 0.008004475
-1.945999 0.6424479 -1.25491 0.3015112 0.9045341 0.3015114 120 120 120 255 0.7372303 0.008004475
-1.945999 0.5072404 -1.25491 0.5773503 0.5773503 0.5773503 120 120 120 255 0.7372303 0.008004475
-1.504753 0.5072404 -1.25491 -0.5773503 0.5773502 0.5773503 120 120 120 255 0.7372304 0.008004475
-1.945999 0.6424479 -1.25491 0.3015112 0.9045341 0.3015114 120 120 120 255 0.7098436 0.008004475
-1.945999 0.6424479 1.244366 0.3015114 0.9045341 -0.3015113 120 120 120 255 0.7098436 0.008004475
-1.945999 0.5072404 1.244366 0.5773501 0.5773503 -0.5773505 120 120 120 255 0.7098436 0.008004475
-1.945999 0.5072404 -1.25491 0.5773503 0.5773503 0.5773503 120 120 120 255 0.7098436 0.008004475
1.50874 0.6424479 -1.25491 0.3015113 0.904534 0.3015113 120 120 120 255 0.7098436 0.008004475
1.50874 0.6424479 0.5153236 0.5773503 0.5773503 0.5773503 120 120 120 255 0.7098438 0.008004475
1.50874 0.5072404 0.5153236 0.3015113 0.904534 0.3015115 120 120 120 255 0.7098438 0.008004475
1.50874 0.5072404 -1.25491 0.5773503 0.5773503 0.5773503 120 120 120 255 0.7098436 0.008004475
1.949973 0.6424479 1.244366 -0.3015111 0.9045342 -0.3015113 120 120 120 255 0.7098436 0.008004475
1.949973 0.6424479 -1.25491 -0.3015114 0.9045341 0.3015113 120 120 120 255 0.7098436 0.008004475
1.949973 0.5072404 -1.25491 -0.57735 0.5773504 0.5773504 120 120 120 255 0.7098436 0.008004475
1.949973 0.5072404 1.244366 -0.5773503 0.5773503 -0.5773503 120 120 120 255 0.7098436 0.008004475
1.949973 0.6424479 -1.25491 -0.3015114 0.9045341 0.3015113 120 120 120 255 0.7372303 0.008004475
1.50874 0.6424479 -1.25491 0.3015113 0.904534 0.3015113 120 120 120 255 0.7372303 0.008004475
1.50874 0.5072404 -1.25491 0.5773503 0.5773503 0.5773503 120 120 120 255 0.7372303 0.008004475
1.949973 0.5072404 -1.25491 -0.57735 0.5773504 0.5773504 120 120 120 255 0.7372303 0.008004475
-1.356056 0.9959255 0.352459 -0.5773502 0.5773502 0.5773504 120 120 120 255 0.7345755 0.008834969
1.360011 0.9959255 0.352459 0.5773503 0.5773503 0.5773503 120 120 120 255 0.7345755 0.008834969
1.360011 0.642448 0.352459 0.7071067 0 0.7071068 120 120 120 255 0.7048015 0.008834969
1.360011 0.9959255 -1.302593 0.5773506 0.5773497 -0.5773506 120 120 120 255 0.7048014 0.008834969
1.360011 0.9959255 0.352459 0.5773503 0.5773503 0.5773503 120 120 120 255 0.7048015 0.008834969
1.360011 0.642448 -1.302593 0.7071067 0 -0.7071068 120 120 120 255 0.7345755 0.008834969
-1.356056 0.9959255 -1.302593 -0.5773503 0.5773501 -0.5773504 120 120 120 255 0.7345755 0.008834969
1.360011 0.9959255 -1.302593 0.5773506 0.5773497 -0.5773506 120 120 120 255 0.7345755 0.008834969
-1.356056 0.642448 -1.302593 -0.7071068 0 -0.7071068 120 120 120 255 0.7048016 0.008834969
-1.356056 0.642448 0.352459 -0.7071068 0 0.7071068 120 120 120 255 0.7048016 0.008834969
-1.356056 0.9959255 0.352459 -0.5773502 0.5773502 0.5773504 120 120 120 255 0.7048016 0.008834969
-1.356056 0.9959255 -1.302593 -0.5773503 0.5773501 -0.5773504 120 120 120 255 0.7048016 0.008834969
1.181273 0.9959255 0.2435722 0.3015112 0.9045342 0.3015111 120 120 120 255 0.7048015 0.008834969
1.181273 0.9959257 -1.193676 0.3015117 0.9045337 -0.3015121 120 120 120 255 0.7048014 0.008834969
-1.177313 0.9959257 -1.193676 -0.3015118 0.9045337 -0.301512 120 120 120 255 0.7048016 0.008834969
-1.177313 0.9959255 0.2435722 -0.3015112 0.9045342 0.301511 120 120 120 255 0.7048016 0.008834969
-1.177313 2.626038 0.2435722 -0.66503 0.4433135 0.6010061 120 120 120 255 0.7048016 0.008834969
-1.177313 2.626038 -1.193676 -0.66503 0.4433135 -0.6010062 120 120 120 255 0.7048016 0.008834969
-1.177313 0.9959257 -1.193676 -0.3015118 0.9045337 -0.301512 120 120 120 255 0.7345755 0.008834969
-1.177313 2.626038 -1.193676 -0.66503 0.4433135 -0.6010062 120 120 120 255 0.7345755 0.008834969
0.001980782 3.117525 -1.193676 1.356953e-07 0.7766733 -0.6299037 120 120 120 255 0.7345755 0.008834969
1.181273 2.626038 -1.193676 0.6650301 0.4433134 -0.6010061 120 120 120 255 0.7345755 0.008834969
1.181273 0.9959257 -1.193676 0.3015117 0.9045337 -0.3015121 120 120 120 255 0.7345755 0.008834969
-1.177313 0.9959255 0.2435722 -0.3015112 0.9045342 0.301511 120 120 120 255 0.7345755 0.008834969
1.181273 0.9959255 0.2435722 0.3015112 0.9045342 0.3015111 120 120 120 255 0.7345755 0.008834969
1.181273 2.626038 0.2435722 0.6650301 0.4433134 0.6010061 120 120 120 255 0.7345755 0.008834969
0.001980782 3.117525 0.2435722 1.277132e-07 0.7766733 0.6299037 120 120 120 255 0.7345755 0.008834969
-1.177313 2.626038 0.2435722 -0.66503 0.4433135 0.6010061 120 120 120 255 0.7345755 0.008834969
-0.8278694 1.27005 0.2435722 0.3015114 0.3015113 0.904534 120 120 120 255 0.7678654 0.006670158
0.8318243 1.27005 0.2435722 -0.3015114 0.3015113 0.904534 120 120 120 255 0.7678654 0.006670158
0.8318243 1.27005 0.2435722 -0.3015114 0.3015113 0.904534 120 120 120 255 0.6729072 0.008834969
0.8318243 2.335478 0.2435722 -0.4311387 -0.2872142 0.8553523 120 120 120 255 0.6729072 0.008834969
0.8318243 1.27005 -0.005306244 -0.3015113 0.3015113 -0.904534 120 120 120 255 0.6729072 0.008834969
0.001980782 2.681908 0.2435722 -8.417946e-07 -0.5933923 0.8049135 120 120 120 255 0.6729072 0.008834969
-0.8278694 2.335478 0.2435722 0.4311378 -0.2872144 0.8553526 120 120 120 255 0.6729072 0.008834969
-0.8278694 1.27005 0.2435722 0.3015114 0.3015113 0.904534 120 120 120 255 0.6729072 0.008834969
-0.8278694 1.27005 -0.005306244 0.3015114 0.3015113 -0.904534 120 120 120 255 0.6729072 0.008834969
-0.8278694 1.27005 -0.005306244 0.3015114 0.3015113 -0.904534 120 120 120 255 0.638623 0.008834969
0.8318243 1.27005 -0.005306244 -0.3015113 0.3015113 -0.904534 120 120 120 255 0.6386229 0.008834969
0.8318243 2.335478 -0.005306244 -0.4311387 -0.2872142 -0.8553523 120 120 120 255 0.6386229 0.008834969
0.001980782 2.681908 -0.005306244 -8.295948e-07 -0.5933923 -0.8049135 120 120 120 255 0.638623 0.008834969
-0.8278694 2.335478 -0.005306244 0.4311378 -0.2872145 -0.8553526 120 120 120 255 0.638623 0.008834969
1.079358 1.14922 -1.039768 -0.5773503 0.5773503 0.5773503 120 120 120 255 0.7372437 0.5311569
-1.075384 1.14922 -1.039768 0.5773503 0.5773503 0.5773503 120 120 120 255 0.7372437 0.5311569
-1.075384 1.14922 -0.005306244 0.5773503 0.5773503 -0.5773501 120 120 120 255 0.7372437 0.5311569
1.079358 1.14922 -0.005306244 -0.5773503 0.5773503 -0.5773501 120 120 120 255 0.7372437 0.5311569
1.079358 1.14922 -0.005306244 -0.5773503 0.5773503 -0.5773501 120 120 120 255 0.6460451 0.008834969
1.079358 2.494381 -0.005306244 -0.6616651 -0.4499796 -0.5997647 120 120 120 255 0.6460451 0.008834969
1.079358 2.494381 -1.039768 -0.6616651 -0.4499795 0.5997648 120 120 120 255 0.6460451 0.008834969
1.079358 1.14922 -1.039768 -0.5773503 0.5773503 0.5773503 120 120 120 255 0.6460451 0.008834969
0.001980782 2.920141 -1.039768 1.508267e-06 -0.7741654 0.6329834 120 120 120 255 0.6119463 0.008834969
0.001980782 2.920141 -0.005306244 1.516164e-06 -0.7741655 -0.6329833 120 120 120 255 0.6119463 0.008834969
-1.075384 2.494381 -0.005306244 0.6616658 -0.4499781 -0.599765 120 120 120 255 0.6119463 0.008834969
-1.075384 2.494381 -1.039768 0.6616658 -0.4499781 0.599765 120 120 120 255 0.6119463 0.008834969
-1.075384 2.494381 -0.005306244 0.6616658 -0.4499781 -0.599765 120 120 120 255 0.6460451 0.008834969
-1.075384 1.14922 -0.005306244 0.5773503 0.5773503 -0.5773501 120 120 120 255 0.6460451 0.008834969
-1.075384 1.14922 -1.039768 0.5773503 0.5773503 0.5773503 120 120 120 255 0.6460451 0.008834969
-1.075384 2.494381 -1.039768 0.6616658 -0.4499781 0.599765 120 120 120 255 0.6460451 0.008834969
1.079358 2.494381 -0.005306244 -0.6616651 -0.4499796 -0.5997647 120 120 120 255 0.6119462 0.008834969
1.079358 2.494381 -1.039768 -0.6616651 -0.4499795 0.5997648 120 120 120 255 0.6119462 0.008834969
1.181273 2.626038 0.2435722 0.6650301 0.4433134 0.6010061 120 120 120 255 0.765033 0.008834969
1.181273 2.626038 -1.193676 0.6650301 0.4433134 -0.6010061 120 120 120 255 0.765033 0.008834969
-2.191079 0.506609 1.471004 -0.3015114 0.904534 0.3015113 120 120 120 255 0.7647896 0.00737524
-2.191079 0.506609 -1.481556 -0.3015116 0.904534 -0.3015113 120 120 120 255 0.7647896 0.00737524
2.195066 0.506609 1.471004 0.3015116 0.904534 0.3015113 120 120 120 255 0.7647896 0.00737524
2.195066 0.506609 -1.481556 0.3015114 0.904534 -0.3015113 120 120 120 255 0.7647896 0.00737524
-2.324549 0.506609 1.59911 -0.57735 0.5773507 0.5773502 120 120 120 255 0.7043855 0.008004475
-2.324549 0.506609 -1.609661 -0.5773505 0.5773501 -0.5773503 120 120 120 255 0.7043855 0.008004475
-2.324549 0.01637816 1.59911 -0.7071069 0 0.7071066 120 120 120 255 0.7341595 0.008004475
2.328536 0.506609 1.59911 0.5773505 0.5773501 0.5773503 120 120 120 255 0.7341595 0.008004475
-2.324549 0.506609 1.59911 -0.57735 0.5773507 0.5773501 120 120 120 255 0.7341595 0.008004475
2.328536 0.01637816 1.59911 0.7071066 0 0.7071069 120 120 120 255 0.7043855 0.008004475
2.328536 0.506609 -1.609661 0.57735 0.5773507 -0.5773502 120 120 120 255 0.7043854 0.008004475
2.328536 0.506609 1.59911 0.5773505 0.5773501 0.5773503 120 120 120 255 0.7043855 0.008004475
-2.324549 0.506609 -1.609661 -0.5773505 0.5773501 -0.5773503 120 120 120 255 0.7341595 0.008004475
2.328536 0.506609 -1.609661 0.57735 0.5773507 -0.5773501 120 120 120 255 0.7341595 0.008004475
2.328536 0.01637816 -1.609661 0.7071069 0 -0.7071066 120 120 120 255 0.7341595 0.008004475
-2.324549 0.01637816 -1.609661 -0.7071066 0 -0.7071069 120 120 120 255 0.7341595 0.008004475
3 0 1 2 
3 0 2 3 
3 4 147 148 
3 4 148 5 
3 6 149 150 
3 6 150 151 
3 7 8 9 
3 7 9 10 
3 152 147 4 
3 152 4 153 
3 154 1 0 
3 154 0 155 
3 11 12 13 
3 11 13 14 
3 15 156 157 
3 15 157 16 
3 17 158 159 
3 17 159 160 
3 18 19 20 
3 18 20 21 
3 161 156 15 
3 161 15 162 
3 163 12 11 
3 163 11 164 
3 22 23 24 
3 22 24 25 
3 26 165 166 
3 26 166 27 
3 28 167 168 
3 28 168 169 
3 29 30 31 
3 29 31 32 
3 170 165 26 
3 170 26 171 
3 172 23 22 
3 172 22 173 
3 33 34 35 
3 33 35 36 
3 37 174 175 
3 37 175 38 
3 39 40 41 
3 39 41 42 
3 176 174 37 
3 176 37 177 
3 178 34 33 
3 178 33 179 
3 180 43 181 
3 180 181 182 
3 44 45 46 
3 44 46 47 
3 48 183 184 
3 48 184 49 
3 50 185 186 
3 50 186 187 
3 51 52 53 
3 51 53 54 
3 188 183 48 
3 188 48 189 
3 190 45 44 
3 190 44 191 
3 55 56 57 
3 55 57 58 
3 59 192 193 
3 59 193 60 
3 61 194 195 
3 61 195 196 
3 62 63 64 
3 62 64 65 
3 197 192 59 
3 197 59 198 
3 199 56 55 
3 199 55 200 
3 66 67 68 
3 66 68 69 
3 70 201 202 
3 70 202 71 
3 72 73 74 
3 72 74 75 
3 203 201 70 
3 203 70 204 
3 205 67 66 
3 205 66 206 
3 207 76 208 
3 207 208 209 
3 77 78 79 
3 77 79 80 
3 81 82 83 
3 81 83 84 
3 85 86 87 
3 85 87 88 
3 210 211 212 
3 210 212 213 
3 214 215 216 
3 214 216 217 
3 218 219 89 
3 218 89 90 
3 219 220 91 
3 219 91 89 
3 92 91 220 
3 92 220 221 
3 92 221 93 
3 92 93 94 
3 221 218 222 
3 221 222 93 
3 84 83 95 
3 84 95 96 
3 97 82 81 
3 97 81 98 
3 99 92 94 
3 99 94 100 
3 223 224 225 
3 223 225 226 
3 227 228 229 
3 227 229 230 
3 231 232 233 
3 231 233 234 
3 235 236 237 
3 235 237 238 
3 239 240 241 
3 239 241 242 
3 243 244 245 
3 243 245 246 
3 247 248 249 
3 247 249 250 
3 251 252 253 
3 251 253 254 
3 101 102 103 
3 101 103 104 
3 105 106 107 
3 105 107 108 
3 109 110 111 
3 109 111 112 
3 104 109 112 
3 104 112 101 
3 110 103 102 
3 110 102 111 
3 255 113 114 
3 255 114 256 
3 257 115 258 
3 257 258 259 
3 260 116 261 
3 260 261 262 
3 263 264 265 
3 263 265 266 
3 267 268 117 
3 267 117 118 
3 119 120 121 
3 119 121 122 
3 119 122 123 
3 269 270 271 
3 269 271 272 
3 273 274 275 
3 273 275 276 
3 273 276 277 
3 124 125 278 
3 124 278 279 
3 279 280 126 
3 279 126 124 
3 127 281 282 
3 127 282 128 
3 282 278 125 
3 282 125 128 
3 129 130 283 
3 129 283 284 
3 285 286 131 
3 285 131 287 
3 132 288 289 
3 132 289 133 
3 289 290 291 
3 289 291 133 
3 134 135 292 
3 134 292 293 
3 293 294 136 
3 293 136 134 
3 137 295 296 
3 137 296 138 
3 296 292 135 
3 296 135 138 
3 297 298 299 
3 297 299 300 
3 301 302 303 
3 301 303 304 
3 305 306 307 
3 305 307 308 
3 309 310 311 
3 309 311 312 
3 313 306 305 
3 313 305 314 
3 294 295 137 
3 294 137 136 
3 286 288 132 
3 286 132 131 
3 280 281 127 
3 280 127 126 
3 107 106 315 
3 107 315 316 
3 139 140 317 
3 139 317 318 
3 140 141 319 
3 140 319 317 
3 141 142 320 
3 141 320 319 
3 318 320 142 
3 318 142 139 
3 143 144 321 
3 143 321 322 
3 323 145 324 
3 323 324 325 
3 326 146 327 
3 326 327 328 
3 329 330 331 
3 329 331 332 
