ply
format ascii 1.0
comment VCGLIB generated
element vertex 473
property float x
property float y
property float z
property float nx
property float ny
property float nz
property uchar red
property uchar green
property uchar blue
property uchar alpha
property float texture_u
property float texture_v
element face 306
property list uchar int vertex_indices
end_header
-0.3786182 1.249671 0.3786106 -0.5773498 -0.577349 0.577352 120 120 120 255 0.2016232 0.5118998
0.3786125 1.249671 0.3786106 0.5773501 -0.5773485 0.5773523 120 120 120 255 0.2016232 0.5118998
0.3786125 1.330916 0.3786101 0.5773505 0.5773521 0.5773483 120 120 120 255 0.2016233 0.5118998
-0.3786182 1.330916 0.3786101 -0.5773507 0.5773516 0.5773486 120 120 120 255 0.2016233 0.5118998
-0.1043653 2.971086 0.1043615 -0.5773503 0.5773503 0.5773503 120 120 120 255 0.2347569 0.5154521
0.1043596 2.971086 0.1043615 0.5773503 0.5773503 0.5773503 120 120 120 255 0.2347569 0.5154521
0.1043596 2.971086 -0.1043606 0.5773503 0.5773503 -0.5773503 120 120 120 255 0.2347569 0.5154521
-0.1043653 2.971086 -0.1043606 -0.5773503 0.5773503 -0.5773503 120 120 120 255 0.2347569 0.5154521
-0.3786182 1.330916 -0.3786101 -0.5773501 0.5773506 -0.5773502 120 120 120 255 0.2016232 0.5118998
0.3786125 1.330916 -0.3786101 0.5773504 0.57735 -0.5773505 120 120 120 255 0.2016232 0.5118998
0.3786125 1.249671 -0.3786101 0.5773501 -0.5773504 -0.5773502 120 120 120 255 0.2016232 0.5118998
-0.3786182 1.249671 -0.3786101 -0.5773503 -0.57735 -0.5773504 120 120 120 255 0.2016232 0.5118998
0.1928692 1.077998 0.1928704 0.01196723 -0.9933144 -0.1148182 120 120 120 255 0.6112652 0.4718342
-2.861023e-06 1.077998 0.1928704 -0.06108508 -0.9720303 -0.2267724 120 120 120 255 0.6112652 0.4718342
-2.861023e-06 1.077998 4.768372e-07 0 -1 0 120 120 120 255 0.6112652 0.4718342
0.1928692 1.077998 4.768372e-07 -0.2267697 -0.972031 0.06108506 120 120 120 255 0.6112652 0.4718342
-0.3935928 1.102551 -0.3935852 -0.6507076 -0.3913572 -0.6507067 120 120 120 255 0.3577608 0.397481
-0.3935928 1.102551 0.3935862 -0.6507072 -0.3913569 0.6507072 120 120 120 255 0.3577608 0.397481
-0.3366241 1.249671 0.3366175 -0.4278046 -0.7962201 0.4278046 120 120 120 255 0.3577608 0.397481
-0.3366241 1.249671 -0.336617 -0.4278033 -0.7962209 -0.4278045 120 120 120 255 0.3577608 0.397481
0.3935871 1.102551 0.3935862 0.6507073 -0.3913566 0.6507074 120 120 120 255 0.3933383 0.397481
0.3366184 1.249671 0.3366175 0.4278044 -0.7962204 0.4278044 120 120 120 255 0.3933383 0.397481
0.3935871 1.102551 -0.3935852 0.6507075 -0.3913577 -0.6507065 120 120 120 255 0.3577608 0.397481
0.3366184 1.249671 -0.336617 0.4278035 -0.7962207 -0.4278047 120 120 120 255 0.3577608 0.397481
-0.03774333 1.976143 0.3542812 0 0 1 120 120 120 255 0.3915111 0.397481
0.0377376 1.976143 0.3542812 0 0 1 120 120 120 255 0.3915111 0.397481
0.03773759 2.015614 0.3542812 0 0 1 120 120 120 255 0.3915111 0.397481
-0.03774332 2.015614 0.3542812 0 0 1 120 120 120 255 0.3915111 0.397481
-0.3366241 1.330916 -0.336617 -0.3207234 0.8813178 -0.3470093 120 120 120 255 0.3298224 0.3971538
-0.3366241 1.330916 0.3542812 -0.3081763 0.8872805 0.3431629 120 120 120 255 0.3298224 0.3971538
-0.4617348 2.121978 0.3542812 -0.7505296 0.05903194 0.6581949 120 120 120 255 0.3298224 0.3971538
-0.4617348 2.121978 -0.3719444 -0.7367353 0.06847384 -0.6727053 120 120 120 255 0.3298224 0.3971538
0.461729 2.121978 -0.3719444 0.7367354 0.06847385 -0.6727052 120 120 120 255 0.3568404 0.397481
0.3366184 1.330916 -0.336617 0.3207234 0.8813179 -0.3470092 120 120 120 255 0.3568404 0.397481
0.3366184 1.330916 0.3542812 0.3081764 0.8872805 0.3431628 120 120 120 255 0.3298224 0.3971538
0.461729 2.121978 0.3542812 0.7505296 0.05903193 0.6581948 120 120 120 255 0.3298224 0.3971538
0.0377376 2.050183 0.3542812 0 0 1 120 120 120 255 0.3933383 0.397481
-0.03774333 2.050183 0.3542812 0 0 1 120 120 120 255 0.3933383 0.397481
-0.3366241 2.507447 -0.336617 -0.4735577 0.6770877 -0.5632898 120 120 120 255 0.3933383 0.397481
0.3366184 2.507447 -0.336617 0.4735577 0.6770877 -0.5632898 120 120 120 255 0.3933383 0.397481
0.3366184 2.507447 0.3542812 0.4722283 0.6497486 0.5956737 120 120 120 255 0.3577608 0.397481
-0.3366241 2.507447 0.3542812 -0.4722283 0.6497486 0.5956738 120 120 120 255 0.3577608 0.397481
0.1043596 2.507447 0.1043615 0.3015113 0.904534 0.3015113 120 120 120 255 0.4247289 0.397481
-0.1043653 2.507447 0.1043615 -0.3015114 0.9045341 0.3015113 120 120 120 255 0.424729 0.397481
0.1043596 2.507447 -0.1043606 0.3015114 0.9045341 -0.3015113 120 120 120 255 0.4247289 0.397481
-0.1043653 2.507447 -0.1043606 -0.3015113 0.904534 -0.3015113 120 120 120 255 0.424729 0.397481
0.3497276 1.102551 -0.3497262 0.429159 -0.7947599 -0.4291613 120 120 120 255 0.3300109 0.3971538
-2.861023e-06 1.102551 -0.3497262 0 -0.5921159 -0.8058528 120 120 120 255 0.3300109 0.3971538
-0.3497334 1.102551 -0.3497262 -0.429159 -0.7947599 -0.4291613 120 120 120 255 0.3300109 0.3971538
0.3497276 1.102551 0.3497272 0.429159 -0.7947598 0.4291613 120 120 120 255 0.3300109 0.3971538
0.3497276 1.102551 4.768372e-07 0.8058541 -0.5921142 0 120 120 120 255 0.3300109 0.3971538
-0.3497334 1.102551 0.3497272 -0.429159 -0.7947599 0.4291613 120 120 120 255 0.3300109 0.3971538
-2.861023e-06 1.102551 0.3497272 0 -0.5921159 0.8058528 120 120 120 255 0.3300109 0.3971538
-0.3497334 1.102551 4.768372e-07 -0.8058541 -0.5921142 0 120 120 120 255 0.3300109 0.3971538
-2.861023e-06 0.9530856 -0.3842528 -0.1063832 -0.8582245 -0.5021288 120 120 120 255 0.6743284 0.4718342
0.1928692 1.058177 -0.3857393 0.1075017 -0.3188808 -0.9416785 120 120 120 255 0.6743284 0.4718342
0.3842546 0.9530856 4.768372e-07 0.502131 -0.8582233 0.1063828 120 120 120 255 0.6463003 0.4718342
0.3857412 1.058177 0.1928704 0.9184493 -0.3949727 -0.02115642 120 120 120 255 0.6463003 0.4718342
0.1928692 1.058177 0.3857403 0.1075018 -0.3188808 0.9416785 120 120 120 255 0.6743284 0.4718342
0.3842546 0.9530856 0.3842537 0.4527076 -0.7681885 0.4527057 120 120 120 255 0.6743284 0.4718342
-0.385747 1.058177 0.1928704 -0.9416807 -0.3188745 0.1075015 120 120 120 255 0.6463004 0.4718342
-0.3842603 0.9530856 0.3842537 -0.4527076 -0.7681884 0.4527056 120 120 120 255 0.6463004 0.4718342
-0.08519554 0.1829332 0.0851903 -0.7071067 0 0.7071068 120 120 120 255 0.1994873 0.5154521
0.08518791 0.1829332 0.0851903 0.7071068 0 0.7071068 120 120 120 255 0.1994873 0.5154521
0.08518791 1.344588 0.0851903 0.7071067 0 0.7071068 120 120 120 255 0.1994873 0.5154521
-0.08519554 1.344588 0.0851903 -0.7071068 0 0.7071068 120 120 120 255 0.1994873 0.5154521
-0.08519554 1.344588 -0.08518934 -0.7071067 0 -0.7071068 120 120 120 255 0.1994873 0.5154521
0.08518791 1.344588 -0.08518934 0.7071068 0 -0.7071068 120 120 120 255 0.1994873 0.5154521
0.08518791 0.1829332 -0.08518934 0.7071067 0 -0.7071068 120 120 120 255 0.1994873 0.5154521
-0.08519554 0.1829332 -0.08518934 -0.7071068 0 -0.7071068 120 120 120 255 0.1994873 0.5154521
-2.861023e-06 0.9530856 0.3842537 -0.1063832 -0.8582245 0.5021288 120 120 120 255 0.6743284 0.4718342
-0.1928749 1.058177 0.3857403 0.02115678 -0.3949788 0.9184466 120 120 120 255 0.6743284 0.4718342
-0.3842603 0.9530856 4.768372e-07 -0.502131 -0.8582233 -0.1063828 120 120 120 255 0.6112652 0.4718342
-0.1928749 1.077998 4.768372e-07 0.2267697 -0.972031 -0.06108506 120 120 120 255 0.6112652 0.4718342
-0.1928749 1.077998 0.1928704 0.1148178 -0.9933145 0.01196652 120 120 120 255 0.6112652 0.4718342
-0.1928749 1.058177 -0.3857393 0.1229628 -0.3273079 -0.936883 120 120 120 255 0.6743284 0.4718342
-0.3842603 0.9530856 -0.3842528 -0.4955585 -0.7133343 -0.4955563 120 120 120 255 0.6743284 0.4718342
-0.385747 1.058177 -0.1928694 -0.9368852 -0.3273018 0.122962 120 120 120 255 0.6463004 0.4718342
-0.1928749 1.077998 -0.1928694 0.1014399 -0.9896564 0.1014403 120 120 120 255 0.6112652 0.4718342
-2.861023e-06 1.077998 -0.1928694 -0.06108508 -0.9720303 0.2267724 120 120 120 255 0.6112652 0.4718342
0.1928692 1.077998 -0.1928694 -0.05225825 -0.9972653 0.05225873 120 120 120 255 0.6112652 0.4718342
0.3857412 1.058177 -0.1928694 0.9416807 -0.3188745 -0.1075015 120 120 120 255 0.6112652 0.4718342
0.3842546 0.9530856 -0.3842528 0.4527076 -0.7681884 -0.4527056 120 120 120 255 0.6112652 0.4718342
0.2623846 1.755785 0.3542812 0 0 1 120 120 120 255 0.3915111 0.397481
-0.2623903 1.755785 0.3542812 0 0 1 120 120 120 255 0.3915111 0.397481
0.2623846 2.030206 0.3542812 0 0 1 120 120 120 255 0.3915111 0.397481
-0.2623903 2.030206 0.3542812 0 0 1 120 120 120 255 0.3915111 0.397481
0.2623846 2.270541 0.3542812 0 0 1 120 120 120 255 0.3933383 0.397481
-0.2623903 2.270541 0.3542812 0 0 1 120 120 120 255 0.3933383 0.397481
0.2050921 1.811984 0.3542812 0 0 1 120 120 120 255 0.1661224 0.1852262
-0.2050978 1.811984 0.3542812 0 0 1 120 120 120 255 0.1661224 0.1852262
0.205092 2.026484 0.3542812 0 0 1 120 120 120 255 0.1661224 0.1852264
-0.2050978 2.026484 0.3542812 0 0 1 120 120 120 255 0.1661224 0.1852264
0.2050921 2.214342 0.3542812 0 0 1 120 120 120 255 0.1661224 0.1852264
-0.2050978 2.214342 0.3542812 0 0 1 120 120 120 255 0.1661224 0.1852264
0.09804556 1.916987 0.3542812 0 0 1 120 120 120 255 0.3915111 0.397481
-0.09805128 1.916987 0.3542812 0 0 1 120 120 120 255 0.3915111 0.397481
0.09804553 2.019531 0.3542812 0 0 1 120 120 120 255 0.3915111 0.397481
-0.09805125 2.019531 0.3542812 0 0 1 120 120 120 255 0.3915111 0.397481
0.09804556 2.109339 0.3542812 0 0 1 120 120 120 255 0.3933383 0.397481
-0.09805128 2.109339 0.3542812 0 0 1 120 120 120 255 0.3933383 0.397481
-0.5000038 0 0.5000005 -0.5773503 -0.5773503 0.5773503 120 120 120 255 0.2025104 0.5097379
0.4999981 0 0.5000005 0.5773501 -0.5773504 0.5773503 120 120 120 255 0.2025104 0.5097379
0.4999981 0.1829332 0.5000005 0.5773503 0.5773503 0.5773503 120 120 120 255 0.2025104 0.5097379
-0.5000038 0.1829332 0.5000005 -0.5773501 0.5773504 0.5773503 120 120 120 255 0.2025104 0.5097379
0.4999981 0.1829332 -0.4999995 0.5773501 0.5773504 -0.5773503 120 120 120 255 0.233901 0.5097379
-0.5000038 0.1829332 -0.4999995 -0.5773503 0.5773503 -0.5773503 120 120 120 255 0.2339011 0.5097379
0.4999981 0 -0.4999995 0.5773503 -0.5773503 -0.5773503 120 120 120 255 0.2025104 0.5097379
-0.5000038 0 -0.4999995 -0.5773501 -0.5773504 -0.5773503 120 120 120 255 0.2025104 0.5097379
0.1189976 0 0.5510244 0.7071068 0 0.7071068 120 120 120 255 0.7659395 0.008789505
0.1189976 0 -0.5510244 0.7071068 0 -0.7071068 120 120 120 255 0.7659395 0.008789505
0.1189976 0.2224448 -0.5510244 0.5773503 0.5773503 -0.5773503 120 120 120 255 0.7659395 0.008789505
0.1189976 0.2224448 0.5510244 0.5773503 0.5773502 0.5773503 120 120 120 255 0.7659395 0.008789505
-0.1190057 0.2224448 -0.5510244 -0.5773503 0.5773502 -0.5773503 120 120 120 255 0.7973301 0.008789505
-0.1190057 0.2224448 0.5510244 -0.5773503 0.5773503 0.5773503 120 120 120 255 0.7973301 0.008789505
-0.1190057 0 -0.5510244 -0.7071068 0 -0.7071068 120 120 120 255 0.7659395 0.008789505
-0.1190057 0 0.5510244 -0.7071068 0 0.7071068 120 120 120 255 0.7659395 0.008789505
-0.5510273 0 0.1190023 -0.7071068 0 0.7071068 120 120 120 255 0.7659395 0.008789505
0.5510216 0 0.1190023 0.7071068 0 0.7071068 120 120 120 255 0.7659395 0.008789505
0.5510216 0.2309266 0.1190023 0.5773503 0.5773503 0.5773503 120 120 120 255 0.7659395 0.008789505
-0.5510273 0.2309266 0.1190023 -0.5773503 0.5773503 0.5773503 120 120 120 255 0.7659395 0.008789505
0.5510216 0.2309266 -0.1190009 0.5773503 0.5773503 -0.5773503 120 120 120 255 0.7973301 0.008789505
-0.5510273 0.2309266 -0.1190009 -0.5773503 0.5773503 -0.5773503 120 120 120 255 0.7973301 0.008789505
0.5510216 0 -0.1190009 0.7071068 0 -0.7071068 120 120 120 255 0.7659395 0.008789505
-0.5510273 0 -0.1190009 -0.7071068 0 -0.7071068 120 120 120 255 0.7659395 0.008789505
0.8658491 2.328866 0.09585047 0 0.7071068 0.7071068 120 120 120 255 0.1739005 0.4422995
0.8658491 2.166252 0.09585047 0 -0.7071068 0.7071068 120 120 120 255 0.1739005 0.4422995
0.9620547 2.166252 0.09585047 0 -0.7071068 0.7071068 120 120 120 255 0.1739005 0.4422995
0.9620547 2.328866 0.09585047 0 0.7071068 0.7071068 120 120 120 255 0.1739005 0.4422995
0.8658491 2.328866 -0.06676149 0 0.7071068 -0.7071068 120 120 120 255 0.2052911 0.4422995
0.9620547 2.328866 -0.06676149 0 0.7071068 -0.7071068 120 120 120 255 0.2052911 0.4422995
0.8658491 2.166252 -0.06676149 0 -0.7071068 -0.7071068 120 120 120 255 0.1739005 0.4422995
0.9620547 2.166252 -0.06676149 0 -0.7071068 -0.7071068 120 120 120 255 0.1739005 0.4422995
1.06895 2.166252 0.09585047 0.5773503 -0.5773503 0.5773503 120 120 120 255 0.2031264 0.5114672
1.06895 2.166252 -0.06676149 0.5773503 -0.5773503 -0.5773503 120 120 120 255 0.2031263 0.5114672
1.06895 2.328866 -0.06676149 0.5773503 0.5773503 -0.5773503 120 120 120 255 0.2031263 0.5114672
1.06895 2.328866 0.09585047 0.5773503 0.5773503 0.5773503 120 120 120 255 0.2031264 0.5114672
-1.06895 2.166252 -0.06676149 -0.5773503 -0.5773503 -0.5773503 120 120 120 255 0.2031264 0.5114672
-1.06895 2.166252 0.09585047 -0.5773503 -0.5773503 0.5773503 120 120 120 255 0.2031264 0.5114672
-1.06895 2.328866 0.09585047 -0.5773503 0.5773503 0.5773503 120 120 120 255 0.2031264 0.5114672
-1.06895 2.328866 -0.06676149 -0.5773503 0.5773503 -0.5773503 120 120 120 255 0.2031264 0.5114672
-0.9620547 2.328866 -0.06676149 0 0.7071068 -0.7071068 120 120 120 255 0.2052912 0.4422995
-0.9620547 2.328866 0.09585046 5.202342e-08 0.7071068 0.7071068 120 120 120 255 0.2052912 0.4422995
-0.8658493 2.328866 0.09585045 2.738075e-08 0.7071068 0.7071067 120 120 120 255 0.2052912 0.4422995
-0.8658493 2.328866 -0.06676149 0 0.7071068 -0.7071067 120 120 120 255 0.2052912 0.4422995
-0.9620547 2.166252 0.09585046 5.202343e-08 -0.7071068 0.7071068 120 120 120 255 0.1739005 0.4422995
-0.8658493 2.166252 0.09585045 2.738074e-08 -0.7071068 0.7071067 120 120 120 255 0.1739005 0.4422995
-0.9620547 2.166252 -0.06676149 0 -0.7071068 -0.7071068 120 120 120 255 0.1086612 0.4422995
-0.8658493 2.166252 -0.06676149 0 -0.7071068 -0.7071067 120 120 120 255 0.1086612 0.4422995
-0.8138983 2.328866 0.09585045 -2.173075e-08 0.7071068 0.7071068 120 120 120 255 0.1739005 0.4422995
-0.8138983 2.166252 0.09585045 -2.173075e-08 -0.7071068 0.7071067 120 120 120 255 0.1739005 0.4422995
-0.6926794 2.166252 0.09585046 -2.553363e-08 -0.7071068 0.7071068 120 120 120 255 0.1739005 0.4422995
-0.6926794 2.328866 0.09585046 -2.553363e-08 0.7071068 0.7071068 120 120 120 255 0.1739005 0.4422995
-0.8138983 2.328866 -0.06676149 0 0.7071068 -0.7071067 120 120 120 255 0.2052912 0.4422995
-0.6926794 2.328866 -0.06676149 0 0.7071068 -0.7071068 120 120 120 255 0.2052912 0.4422995
-0.8138983 2.166252 -0.06676149 0 -0.7071068 -0.7071068 120 120 120 255 0.1739005 0.4422995
-0.6926794 2.166252 -0.06676149 0 -0.7071068 -0.7071068 120 120 120 255 0.1739005 0.4422995
0.6926793 2.328866 -0.06676149 0 0.7071068 -0.7071068 120 120 120 255 0.2052911 0.4422995
0.6926793 2.328866 0.09585047 0 0.7071068 0.7071067 120 120 120 255 0.2052911 0.4422995
0.8138982 2.328866 0.09585047 0 0.7071068 0.7071068 120 120 120 255 0.2052911 0.4422995
0.8138982 2.328866 -0.06676149 0 0.7071068 -0.7071068 120 120 120 255 0.2052911 0.4422995
0.6926793 2.166252 0.09585047 0 -0.7071068 0.7071068 120 120 120 255 0.1739005 0.4422995
0.8138982 2.166252 0.09585047 0 -0.7071068 0.7071068 120 120 120 255 0.1739005 0.4422995
0.6926793 2.166252 -0.06676149 0 -0.7071068 -0.7071067 120 120 120 255 0.1086612 0.4422995
0.8138982 2.166252 -0.06676149 0 -0.7071068 -0.7071068 120 120 120 255 0.1086612 0.4422995
0 2.166252 0.09585047 -3.802882e-09 -0.7071068 0.7071067 120 120 120 255 0.2348936 0.5114672
0 2.328866 0.09585047 -3.802882e-09 0.7071068 0.7071067 120 120 120 255 0.2348936 0.5114672
0 2.328866 -0.06676149 0 0.7071068 -0.7071067 120 120 120 255 0.2662843 0.5114672
0 2.166252 -0.06676149 0 -0.7071068 -0.7071067 120 120 120 255 0.2348936 0.5114672
0.3786125 1.249671 0.3786106 0.5773501 -0.5773485 0.5773523 120 120 120 255 0.169856 0.5118998
0.3786125 1.249671 -0.3786101 0.5773501 -0.5773504 -0.5773502 120 120 120 255 0.1698559 0.5118998
0.3786125 1.330916 -0.3786101 0.5773504 0.57735 -0.5773505 120 120 120 255 0.1698559 0.5118998
0.3786125 1.330916 0.3786101 0.5773505 0.5773521 0.5773483 120 120 120 255 0.169856 0.5118998
-0.3786182 1.249671 -0.3786101 -0.5773503 -0.57735 -0.5773504 120 120 120 255 0.169856 0.5118998
-0.3786182 1.249671 0.3786106 -0.5773498 -0.577349 0.577352 120 120 120 255 0.169856 0.5118998
-0.3786182 1.330916 0.3786101 -0.5773507 0.5773516 0.5773486 120 120 120 255 0.169856 0.5118998
-0.3786182 1.330916 -0.3786101 -0.5773501 0.5773506 -0.5773502 120 120 120 255 0.169856 0.5118998
-0.3935928 1.102551 0.3935862 -0.6507072 -0.3913569 0.6507072 120 120 120 255 0.3933383 0.397481
-0.3366241 1.249671 0.3366175 -0.4278046 -0.7962201 0.4278046 120 120 120 255 0.3933383 0.397481
0.3935871 1.102551 0.3935862 0.6507073 -0.3913566 0.6507074 120 120 120 255 0.3577608 0.397481
0.3366184 1.249671 0.3366175 0.4278044 -0.7962204 0.4278044 120 120 120 255 0.3577608 0.397481
-0.3366241 1.249671 -0.336617 -0.4278033 -0.7962209 -0.4278045 120 120 120 255 0.3933383 0.397481
0.3366184 1.249671 -0.336617 0.4278035 -0.7962207 -0.4278047 120 120 120 255 0.3933383 0.397481
0.3935871 1.102551 -0.3935852 0.6507075 -0.3913577 -0.6507065 120 120 120 255 0.3933383 0.397481
-0.3935928 1.102551 -0.3935852 -0.6507076 -0.3913572 -0.6507067 120 120 120 255 0.3933383 0.397481
-0.4617348 2.121978 -0.3719444 -0.7367353 0.06847384 -0.6727053 120 120 120 255 0.3568404 0.397481
-0.3366241 1.330916 -0.336617 -0.3207234 0.8813178 -0.3470093 120 120 120 255 0.3568404 0.397481
0.3366184 1.330916 -0.336617 0.3207234 0.8813179 -0.3470092 120 120 120 255 0.3298224 0.3971538
0.461729 2.121978 -0.3719444 0.7367354 0.06847385 -0.6727052 120 120 120 255 0.3298224 0.3971538
-0.3366241 1.249671 0.3366175 -0.4278046 -0.7962201 0.4278046 120 120 120 255 0.2016232 0.5118998
0.3366184 1.249671 0.3366175 0.4278044 -0.7962204 0.4278044 120 120 120 255 0.2016232 0.5118998
0.3366184 1.330916 0.3542812 0.3081764 0.8872805 0.3431628 120 120 120 255 0.2016233 0.5118998
-0.3366241 1.330916 0.3542812 -0.3081763 0.8872805 0.3431629 120 120 120 255 0.2016233 0.5118998
-0.3366241 1.330916 -0.336617 -0.3207234 0.8813178 -0.3470093 120 120 120 255 0.2016232 0.5118998
0.3366184 1.330916 -0.336617 0.3207234 0.8813179 -0.3470092 120 120 120 255 0.2016232 0.5118998
0.3366184 1.249671 -0.336617 0.4278035 -0.7962207 -0.4278047 120 120 120 255 0.2016232 0.5118998
-0.3366241 1.249671 -0.336617 -0.4278033 -0.7962209 -0.4278045 120 120 120 255 0.2016232 0.5118998
0.3366184 1.249671 0.3366175 0.4278044 -0.7962204 0.4278044 120 120 120 255 0.169856 0.5118998
0.3366184 1.249671 -0.336617 0.4278035 -0.7962207 -0.4278047 120 120 120 255 0.1698559 0.5118998
0.3366184 1.330916 -0.336617 0.3207234 0.8813179 -0.3470092 120 120 120 255 0.1698559 0.5118998
0.3366184 1.330916 0.3542812 0.3081764 0.8872805 0.3431628 120 120 120 255 0.169856 0.5118998
-0.3366241 1.249671 -0.336617 -0.4278033 -0.7962209 -0.4278045 120 120 120 255 0.169856 0.5118998
-0.3366241 1.249671 0.3366175 -0.4278046 -0.7962201 0.4278046 120 120 120 255 0.169856 0.5118998
-0.3366241 1.330916 0.3542812 -0.3081763 0.8872805 0.3431629 120 120 120 255 0.169856 0.5118998
-0.3366241 1.330916 -0.336617 -0.3207234 0.8813178 -0.3470093 120 120 120 255 0.169856 0.5118998
-0.03774332 2.015614 0.3542812 0 0 1 120 120 120 255 0.3933383 0.397481
0.03773759 2.015614 0.3542812 0 0 1 120 120 120 255 0.3933383 0.397481
0.461729 2.121978 -0.3719444 0.7367354 0.06847385 -0.6727052 120 120 120 255 0.3933383 0.397481
-0.4617348 2.121978 -0.3719444 -0.7367353 0.06847384 -0.6727053 120 120 120 255 0.3933383 0.397481
0.461729 2.121978 0.3542812 0.7505296 0.05903193 0.6581948 120 120 120 255 0.3577608 0.397481
0.461729 2.121978 -0.3719444 0.7367354 0.06847385 -0.6727052 120 120 120 255 0.3577608 0.397481
0.3366184 2.507447 -0.336617 0.4735577 0.6770877 -0.5632898 120 120 120 255 0.3577608 0.397481
-0.3366241 2.507447 -0.336617 -0.4735577 0.6770877 -0.5632898 120 120 120 255 0.3577608 0.397481
-0.4617348 2.121978 -0.3719444 -0.7367353 0.06847384 -0.6727053 120 120 120 255 0.3577608 0.397481
-0.4617348 2.121978 0.3542812 -0.7505296 0.05903194 0.6581949 120 120 120 255 0.3577608 0.397481
-0.3366241 2.507447 0.3542812 -0.4722283 0.6497486 0.5956738 120 120 120 255 0.424729 0.397481
0.3366184 2.507447 0.3542812 0.4722283 0.6497486 0.5956737 120 120 120 255 0.4247289 0.397481
0.3366184 2.507447 -0.336617 0.4735577 0.6770877 -0.5632898 120 120 120 255 0.4247289 0.397481
-0.3366241 2.507447 -0.336617 -0.4735577 0.6770877 -0.5632898 120 120 120 255 0.424729 0.397481
-0.1043653 2.507447 0.1043615 -0.3015114 0.9045341 0.3015113 120 120 120 255 0.1994873 0.5154521
0.1043596 2.507447 0.1043615 0.3015113 0.904534 0.3015113 120 120 120 255 0.1994873 0.5154521
0.1043596 2.971086 0.1043615 0.5773503 0.5773503 0.5773503 120 120 120 255 0.1994873 0.5154521
-0.1043653 2.971086 0.1043615 -0.5773503 0.5773503 0.5773503 120 120 120 255 0.1994873 0.5154521
0.1043596 2.507447 0.1043615 0.3015113 0.904534 0.3015113 120 120 120 255 0.1692562 0.5154521
0.1043596 2.507447 -0.1043606 0.3015114 0.9045341 -0.3015113 120 120 120 255 0.1692562 0.5154521
0.1043596 2.971086 -0.1043606 0.5773503 0.5773503 -0.5773503 120 120 120 255 0.1692562 0.5154521
0.1043596 2.971086 0.1043615 0.5773503 0.5773503 0.5773503 120 120 120 255 0.1692562 0.5154521
0.1043596 2.507447 -0.1043606 0.3015114 0.9045341 -0.3015113 120 120 120 255 0.1994873 0.5154521
-0.1043653 2.507447 -0.1043606 -0.3015113 0.904534 -0.3015113 120 120 120 255 0.1994873 0.5154521
-0.1043653 2.971086 -0.1043606 -0.5773503 0.5773503 -0.5773503 120 120 120 255 0.1994873 0.5154521
0.1043596 2.971086 -0.1043606 0.5773503 0.5773503 -0.5773503 120 120 120 255 0.1994873 0.5154521
-0.1043653 2.507447 -0.1043606 -0.3015113 0.904534 -0.3015113 120 120 120 255 0.1692562 0.5154521
-0.1043653 2.507447 0.1043615 -0.3015114 0.9045341 0.3015113 120 120 120 255 0.1692562 0.5154521
-0.1043653 2.971086 0.1043615 -0.5773503 0.5773503 0.5773503 120 120 120 255 0.1692562 0.5154521
-0.1043653 2.971086 -0.1043606 -0.5773503 0.5773503 -0.5773503 120 120 120 255 0.1692562 0.5154521
-0.3935928 1.102551 -0.3935852 -0.6507076 -0.3913572 -0.6507067 120 120 120 255 0.3300109 0.3971538
0.3935871 1.102551 -0.3935852 0.6507075 -0.3913577 -0.6507065 120 120 120 255 0.3300109 0.3971538
0.3935871 1.102551 0.3935862 0.6507073 -0.3913566 0.6507074 120 120 120 255 0.3300109 0.3971538
-0.3935928 1.102551 0.3935862 -0.6507072 -0.3913569 0.6507072 120 120 120 255 0.3300109 0.3971538
-2.861023e-06 1.102551 -0.3497262 0 -0.5921159 -0.8058528 120 120 120 255 0.6743284 0.4718342
0.3497276 1.102551 4.768372e-07 0.8058541 -0.5921142 0 120 120 120 255 0.6463003 0.4718342
0.3497276 1.102551 0.3497272 0.429159 -0.7947598 0.4291613 120 120 120 255 0.6743284 0.4718342
-0.3497334 1.102551 0.3497272 -0.429159 -0.7947599 0.4291613 120 120 120 255 0.6463004 0.4718342
0.08518791 0.1829332 0.0851903 0.7071068 0 0.7071068 120 120 120 255 0.1692562 0.5154521
0.08518791 0.1829332 -0.08518934 0.7071067 0 -0.7071068 120 120 120 255 0.1692562 0.5154521
0.08518791 1.344588 -0.08518934 0.7071068 0 -0.7071068 120 120 120 255 0.1692562 0.5154521
0.08518791 1.344588 0.0851903 0.7071067 0 0.7071068 120 120 120 255 0.1692562 0.5154521
-0.08519554 0.1829332 -0.08518934 -0.7071068 0 -0.7071068 120 120 120 255 0.1692562 0.5154521
-0.08519554 0.1829332 0.0851903 -0.7071067 0 0.7071068 120 120 120 255 0.1692562 0.5154521
-0.08519554 1.344588 0.0851903 -0.7071068 0 0.7071068 120 120 120 255 0.1692562 0.5154521
-0.08519554 1.344588 -0.08518934 -0.7071067 0 -0.7071068 120 120 120 255 0.1692562 0.5154521
-2.861023e-06 1.102551 0.3497272 0 -0.5921159 0.8058528 120 120 120 255 0.6743284 0.4718342
-0.385747 1.058177 0.1928704 -0.9416807 -0.3188745 0.1075015 120 120 120 255 0.6112652 0.4718342
-0.3497334 1.102551 -0.3497262 -0.429159 -0.7947599 -0.4291613 120 120 120 255 0.6743284 0.4718342
0.3857412 1.058177 0.1928704 0.9184493 -0.3949727 -0.02115642 120 120 120 255 0.6112652 0.4718342
0.3842546 0.9530856 4.768372e-07 0.502131 -0.8582233 0.1063828 120 120 120 255 0.6112652 0.4718342
-0.3842603 0.9530856 4.768372e-07 -0.502131 -0.8582233 -0.1063828 120 120 120 255 0.6463004 0.4718342
-0.3497334 1.102551 4.768372e-07 -0.8058541 -0.5921142 0 120 120 120 255 0.6463004 0.4718342
-0.3842603 0.9530856 -0.3842528 -0.4955585 -0.7133343 -0.4955563 120 120 120 255 0.6112652 0.4718342
-0.1928749 1.058177 -0.3857393 0.1229628 -0.3273079 -0.936883 120 120 120 255 0.6112652 0.4718342
-0.385747 1.058177 -0.1928694 -0.9368852 -0.3273018 0.122962 120 120 120 255 0.6112652 0.4718342
-2.861023e-06 0.9530856 -0.3842528 -0.1063832 -0.8582245 -0.5021288 120 120 120 255 0.6112652 0.4718342
0.1928692 1.058177 -0.3857393 0.1075017 -0.3188808 -0.9416785 120 120 120 255 0.6112652 0.4718342
0.3497276 1.102551 -0.3497262 0.429159 -0.7947599 -0.4291613 120 120 120 255 0.6463003 0.4718342
0.3857412 1.058177 -0.1928694 0.9416807 -0.3188745 -0.1075015 120 120 120 255 0.6463003 0.4718342
0.3842546 0.9530856 -0.3842528 0.4527076 -0.7681884 -0.4527056 120 120 120 255 0.6463003 0.4718342
0.1928692 1.058177 0.3857403 0.1075018 -0.3188808 0.9416785 120 120 120 255 0.6112652 0.4718342
0.3842546 0.9530856 0.3842537 0.4527076 -0.7681885 0.4527057 120 120 120 255 0.6112652 0.4718342
-2.861023e-06 0.9530856 0.3842537 -0.1063832 -0.8582245 0.5021288 120 120 120 255 0.6112652 0.4718342
-0.1928749 1.058177 0.3857403 0.02115678 -0.3949788 0.9184466 120 120 120 255 0.6112652 0.4718342
-0.3842603 0.9530856 0.3842537 -0.4527076 -0.7681884 0.4527056 120 120 120 255 0.6112652 0.4718342
-0.3497334 1.102551 0.3497272 -0.429159 -0.7947599 0.4291613 120 120 120 255 0.6743284 0.4718342
-0.3842603 0.9530856 0.3842537 -0.4527076 -0.7681884 0.4527056 120 120 120 255 0.6743284 0.4718342
-0.3497334 1.102551 -0.3497262 -0.429159 -0.7947599 -0.4291613 120 120 120 255 0.6463004 0.4718342
-0.3842603 0.9530856 -0.3842528 -0.4955585 -0.7133343 -0.4955563 120 120 120 255 0.6463004 0.4718342
0.3497276 1.102551 -0.3497262 0.429159 -0.7947599 -0.4291613 120 120 120 255 0.6743284 0.4718342
0.3842546 0.9530856 -0.3842528 0.4527076 -0.7681884 -0.4527056 120 120 120 255 0.6743284 0.4718342
0.3497276 1.102551 0.3497272 0.429159 -0.7947598 0.4291613 120 120 120 255 0.6463003 0.4718342
0.3842546 0.9530856 0.3842537 0.4527076 -0.7681885 0.4527057 120 120 120 255 0.6463003 0.4718342
-0.3366241 1.330916 0.3542812 -0.3081763 0.8872805 0.3431629 120 120 120 255 0.3915111 0.397481
0.3366184 1.330916 0.3542812 0.3081764 0.8872805 0.3431628 120 120 120 255 0.3915111 0.397481
0.461729 2.121978 0.3542812 0.7505296 0.05903193 0.6581948 120 120 120 255 0.3915111 0.397481
-0.4617348 2.121978 0.3542812 -0.7505296 0.05903194 0.6581949 120 120 120 255 0.3915111 0.397481
0.461729 2.121978 0.3542812 0.7505296 0.05903193 0.6581948 120 120 120 255 0.3933383 0.397481
0.3366184 2.507447 0.3542812 0.4722283 0.6497486 0.5956737 120 120 120 255 0.3933383 0.397481
0.2623846 2.030206 0.3542812 0 0 1 120 120 120 255 0.3933383 0.397481
-0.3366241 2.507447 0.3542812 -0.4722283 0.6497486 0.5956738 120 120 120 255 0.3933383 0.397481
-0.4617348 2.121978 0.3542812 -0.7505296 0.05903194 0.6581949 120 120 120 255 0.3933383 0.397481
-0.2623903 2.030206 0.3542812 0 0 1 120 120 120 255 0.3933383 0.397481
-0.2623903 1.755785 0.3542812 0 0 1 120 120 120 255 0.1661224 0.1852262
0.2623846 1.755785 0.3542812 0 0 1 120 120 120 255 0.1661224 0.1852262
0.2623846 2.030206 0.3542812 0 0 1 120 120 120 255 0.1661224 0.1852264
-0.2623903 2.030206 0.3542812 0 0 1 120 120 120 255 0.1661224 0.1852264
0.2623846 2.270541 0.3542812 0 0 1 120 120 120 255 0.1661224 0.1852264
-0.2623903 2.270541 0.3542812 0 0 1 120 120 120 255 0.1661224 0.1852264
-0.2050978 1.811984 0.3542812 0 0 1 120 120 120 255 0.3915111 0.397481
0.2050921 1.811984 0.3542812 0 0 1 120 120 120 255 0.3915111 0.397481
0.205092 2.026484 0.3542812 0 0 1 120 120 120 255 0.3915111 0.397481
-0.2050978 2.026484 0.3542812 0 0 1 120 120 120 255 0.3915111 0.397481
0.205092 2.026484 0.3542812 0 0 1 120 120 120 255 0.3933383 0.397481
0.2050921 2.214342 0.3542812 0 0 1 120 120 120 255 0.3933383 0.397481
0.09804553 2.019531 0.3542812 0 0 1 120 120 120 255 0.3933383 0.397481
-0.2050978 2.214342 0.3542812 0 0 1 120 120 120 255 0.3933383 0.397481
-0.2050978 2.026484 0.3542812 0 0 1 120 120 120 255 0.3933383 0.397481
-0.09805125 2.019531 0.3542812 0 0 1 120 120 120 255 0.3933383 0.397481
-0.09805128 1.916987 0.3542812 0 0 1 120 120 120 255 0.1661224 0.1852264
0.09804556 1.916987 0.3542812 0 0 1 120 120 120 255 0.1661224 0.1852264
0.0377376 1.976143 0.3542812 0 0 1 120 120 120 255 0.1661224 0.1852264
-0.03774333 1.976143 0.3542812 0 0 1 120 120 120 255 0.1661224 0.1852264
0.09804553 2.019531 0.3542812 0 0 1 120 120 120 255 0.1661224 0.1852262
0.03773759 2.015614 0.3542812 0 0 1 120 120 120 255 0.1661224 0.1852262
-0.09805125 2.019531 0.3542812 0 0 1 120 120 120 255 0.1661224 0.1852262
-0.03774332 2.015614 0.3542812 0 0 1 120 120 120 255 0.1661224 0.1852262
0.09804556 2.109339 0.3542812 0 0 1 120 120 120 255 0.1661224 0.1852264
0.0377376 2.050183 0.3542812 0 0 1 120 120 120 255 0.1661224 0.1852264
-0.09805128 2.109339 0.3542812 0 0 1 120 120 120 255 0.1661224 0.1852264
-0.03774333 2.050183 0.3542812 0 0 1 120 120 120 255 0.1661224 0.1852264
-0.5000038 0.1829332 0.5000005 -0.5773501 0.5773504 0.5773503 120 120 120 255 0.2339011 0.5097379
0.4999981 0.1829332 0.5000005 0.5773503 0.5773503 0.5773503 120 120 120 255 0.233901 0.5097379
-0.5000038 0.1829332 -0.4999995 -0.5773503 0.5773503 -0.5773503 120 120 120 255 0.2025104 0.5097379
0.4999981 0.1829332 -0.4999995 0.5773501 0.5773504 -0.5773503 120 120 120 255 0.2025104 0.5097379
-0.5000038 0 -0.4999995 -0.5773501 -0.5773504 -0.5773503 120 120 120 255 0.1372712 0.5097379
0.4999981 0 -0.4999995 0.5773503 -0.5773503 -0.5773503 120 120 120 255 0.1372711 0.5097379
0.4999981 0 0.5000005 0.5773501 -0.5773504 0.5773503 120 120 120 255 0.1372711 0.5097379
-0.5000038 0 0.5000005 -0.5773503 -0.5773503 0.5773503 120 120 120 255 0.1372712 0.5097379
0.4999981 0 0.5000005 0.5773501 -0.5773504 0.5773503 120 120 120 255 0.1707432 0.5097379
0.4999981 0 -0.4999995 0.5773503 -0.5773503 -0.5773503 120 120 120 255 0.1707431 0.5097379
0.4999981 0.1829332 -0.4999995 0.5773501 0.5773504 -0.5773503 120 120 120 255 0.1707431 0.5097379
0.4999981 0.1829332 0.5000005 0.5773503 0.5773503 0.5773503 120 120 120 255 0.1707432 0.5097379
-0.5000038 0 -0.4999995 -0.5773501 -0.5773504 -0.5773503 120 120 120 255 0.1707432 0.5097379
-0.5000038 0 0.5000005 -0.5773503 -0.5773503 0.5773503 120 120 120 255 0.1707432 0.5097379
-0.5000038 0.1829332 0.5000005 -0.5773501 0.5773504 0.5773503 120 120 120 255 0.1707432 0.5097379
-0.5000038 0.1829332 -0.4999995 -0.5773503 0.5773503 -0.5773503 120 120 120 255 0.1707432 0.5097379
0.1189976 0.2224448 0.5510244 0.5773503 0.5773502 0.5773503 120 120 120 255 0.7973301 0.008789505
0.1189976 0.2224448 -0.5510244 0.5773503 0.5773503 -0.5773503 120 120 120 255 0.7973301 0.008789505
-0.1190057 0.2224448 0.5510244 -0.5773503 0.5773503 0.5773503 120 120 120 255 0.7659395 0.008789505
-0.1190057 0.2224448 -0.5510244 -0.5773503 0.5773502 -0.5773503 120 120 120 255 0.7659395 0.008789505
0.1189976 0 -0.5510244 0.7071068 0 -0.7071068 120 120 120 255 0.7341722 0.008789505
-0.1190057 0 -0.5510244 -0.7071068 0 -0.7071068 120 120 120 255 0.7341722 0.008789505
-0.1190057 0.2224448 -0.5510244 -0.5773503 0.5773502 -0.5773503 120 120 120 255 0.7341722 0.008789505
0.1189976 0.2224448 -0.5510244 0.5773503 0.5773503 -0.5773503 120 120 120 255 0.7341722 0.008789505
-0.1190057 0 0.5510244 -0.7071068 0 0.7071068 120 120 120 255 0.7341722 0.008789505
0.1189976 0 0.5510244 0.7071068 0 0.7071068 120 120 120 255 0.7341722 0.008789505
0.1189976 0.2224448 0.5510244 0.5773503 0.5773502 0.5773503 120 120 120 255 0.7341722 0.008789505
-0.1190057 0.2224448 0.5510244 -0.5773503 0.5773503 0.5773503 120 120 120 255 0.7341722 0.008789505
-0.5510273 0.2309266 0.1190023 -0.5773503 0.5773503 0.5773503 120 120 120 255 0.7973301 0.008789505
0.5510216 0.2309266 0.1190023 0.5773503 0.5773503 0.5773503 120 120 120 255 0.7973301 0.008789505
-0.5510273 0.2309266 -0.1190009 -0.5773503 0.5773503 -0.5773503 120 120 120 255 0.7659395 0.008789505
0.5510216 0.2309266 -0.1190009 0.5773503 0.5773503 -0.5773503 120 120 120 255 0.7659395 0.008789505
0.5510216 0 0.1190023 0.7071068 0 0.7071068 120 120 120 255 0.7341722 0.008789505
0.5510216 0 -0.1190009 0.7071068 0 -0.7071068 120 120 120 255 0.7341722 0.008789505
0.5510216 0.2309266 -0.1190009 0.5773503 0.5773503 -0.5773503 120 120 120 255 0.7341722 0.008789505
0.5510216 0.2309266 0.1190023 0.5773503 0.5773503 0.5773503 120 120 120 255 0.7341722 0.008789505
-0.5510273 0 -0.1190009 -0.7071068 0 -0.7071068 120 120 120 255 0.7341722 0.008789505
-0.5510273 0 0.1190023 -0.7071068 0 0.7071068 120 120 120 255 0.7341722 0.008789505
-0.5510273 0.2309266 0.1190023 -0.5773503 0.5773503 0.5773503 120 120 120 255 0.7341722 0.008789505
-0.5510273 0.2309266 -0.1190009 -0.5773503 0.5773503 -0.5773503 120 120 120 255 0.7341722 0.008789505
0.8658491 2.328866 0.09585047 0 0.7071068 0.7071068 120 120 120 255 0.2052911 0.4422995
0.9620547 2.328866 0.09585047 0 0.7071068 0.7071068 120 120 120 255 0.2052911 0.4422995
0.8658491 2.328866 -0.06676149 0 0.7071068 -0.7071068 120 120 120 255 0.1739005 0.4422995
0.9620547 2.328866 -0.06676149 0 0.7071068 -0.7071068 120 120 120 255 0.1739005 0.4422995
0.8658491 2.166252 0.09585047 0 -0.7071068 0.7071068 120 120 120 255 0.1086612 0.4422995
0.8658491 2.166252 -0.06676149 0 -0.7071068 -0.7071068 120 120 120 255 0.1086612 0.4422995
0.9620547 2.166252 -0.06676149 0 -0.7071068 -0.7071068 120 120 120 255 0.1086612 0.4422995
0.9620547 2.166252 0.09585047 0 -0.7071068 0.7071068 120 120 120 255 0.1086612 0.4422995
-0.9620547 2.328866 0.09585046 5.202342e-08 0.7071068 0.7071068 120 120 120 255 0.1739005 0.4422995
-0.8658493 2.328866 0.09585045 2.738075e-08 0.7071068 0.7071067 120 120 120 255 0.1739005 0.4422995
-0.9620547 2.166252 0.09585046 5.202343e-08 -0.7071068 0.7071068 120 120 120 255 0.1086612 0.4422995
-0.8658493 2.166252 0.09585045 2.738074e-08 -0.7071068 0.7071067 120 120 120 255 0.1086612 0.4422995
-0.9620547 2.166252 -0.06676149 0 -0.7071068 -0.7071068 120 120 120 255 0.1739005 0.4422995
-0.9620547 2.328866 -0.06676149 0 0.7071068 -0.7071068 120 120 120 255 0.1739005 0.4422995
-0.8658493 2.328866 -0.06676149 0 0.7071068 -0.7071067 120 120 120 255 0.1739005 0.4422995
-0.8658493 2.166252 -0.06676149 0 -0.7071068 -0.7071067 120 120 120 255 0.1739005 0.4422995
0.9620547 2.328866 0.09585047 0 0.7071068 0.7071068 120 120 120 255 0.2348936 0.5114672
0.9620547 2.166252 0.09585047 0 -0.7071068 0.7071068 120 120 120 255 0.2348936 0.5114672
1.06895 2.166252 0.09585047 0.5773503 -0.5773503 0.5773503 120 120 120 255 0.2348936 0.5114672
1.06895 2.328866 0.09585047 0.5773503 0.5773503 0.5773503 120 120 120 255 0.2348936 0.5114672
0.9620547 2.328866 -0.06676149 0 0.7071068 -0.7071068 120 120 120 255 0.2662843 0.5114672
0.9620547 2.328866 0.09585047 0 0.7071068 0.7071068 120 120 120 255 0.2662843 0.5114672
1.06895 2.328866 0.09585047 0.5773503 0.5773503 0.5773503 120 120 120 255 0.2662843 0.5114672
1.06895 2.328866 -0.06676149 0.5773503 0.5773503 -0.5773503 120 120 120 255 0.2662843 0.5114672
0.9620547 2.166252 -0.06676149 0 -0.7071068 -0.7071068 120 120 120 255 0.2348936 0.5114672
0.9620547 2.328866 -0.06676149 0 0.7071068 -0.7071068 120 120 120 255 0.2348936 0.5114672
1.06895 2.328866 -0.06676149 0.5773503 0.5773503 -0.5773503 120 120 120 255 0.2348936 0.5114672
1.06895 2.166252 -0.06676149 0.5773503 -0.5773503 -0.5773503 120 120 120 255 0.2348936 0.5114672
0.9620547 2.166252 0.09585047 0 -0.7071068 0.7071068 120 120 120 255 0.1696543 0.5114672
0.9620547 2.166252 -0.06676149 0 -0.7071068 -0.7071068 120 120 120 255 0.1696543 0.5114672
1.06895 2.166252 -0.06676149 0.5773503 -0.5773503 -0.5773503 120 120 120 255 0.1696543 0.5114672
1.06895 2.166252 0.09585047 0.5773503 -0.5773503 0.5773503 120 120 120 255 0.1696543 0.5114672
-1.06895 2.328866 0.09585047 -0.5773503 0.5773503 0.5773503 120 120 120 255 0.2662843 0.5114672
-0.9620547 2.328866 0.09585046 5.202342e-08 0.7071068 0.7071068 120 120 120 255 0.2662843 0.5114672
-0.9620547 2.328866 -0.06676149 0 0.7071068 -0.7071068 120 120 120 255 0.2662843 0.5114672
-1.06895 2.328866 -0.06676149 -0.5773503 0.5773503 -0.5773503 120 120 120 255 0.2662843 0.5114672
-1.06895 2.166252 0.09585047 -0.5773503 -0.5773503 0.5773503 120 120 120 255 0.2348936 0.5114672
-0.9620547 2.166252 0.09585046 5.202343e-08 -0.7071068 0.7071068 120 120 120 255 0.2348936 0.5114672
-0.9620547 2.328866 0.09585046 5.202342e-08 0.7071068 0.7071068 120 120 120 255 0.2348936 0.5114672
-1.06895 2.328866 0.09585047 -0.5773503 0.5773503 0.5773503 120 120 120 255 0.2348936 0.5114672
-1.06895 2.166252 -0.06676149 -0.5773503 -0.5773503 -0.5773503 120 120 120 255 0.1696544 0.5114672
-0.9620547 2.166252 -0.06676149 0 -0.7071068 -0.7071068 120 120 120 255 0.1696544 0.5114672
-0.9620547 2.166252 0.09585046 5.202343e-08 -0.7071068 0.7071068 120 120 120 255 0.1696544 0.5114672
-1.06895 2.166252 0.09585047 -0.5773503 -0.5773503 0.5773503 120 120 120 255 0.1696544 0.5114672
-1.06895 2.328866 -0.06676149 -0.5773503 0.5773503 -0.5773503 120 120 120 255 0.2348936 0.5114672
-0.9620547 2.328866 -0.06676149 0 0.7071068 -0.7071068 120 120 120 255 0.2348936 0.5114672
-0.9620547 2.166252 -0.06676149 0 -0.7071068 -0.7071068 120 120 120 255 0.2348936 0.5114672
-1.06895 2.166252 -0.06676149 -0.5773503 -0.5773503 -0.5773503 120 120 120 255 0.2348936 0.5114672
-0.8138983 2.328866 0.09585045 -2.173075e-08 0.7071068 0.7071068 120 120 120 255 0.2052912 0.4422995
-0.6926794 2.328866 0.09585046 -2.553363e-08 0.7071068 0.7071068 120 120 120 255 0.2052912 0.4422995
-0.8138983 2.328866 -0.06676149 0 0.7071068 -0.7071067 120 120 120 255 0.1739005 0.4422995
-0.6926794 2.328866 -0.06676149 0 0.7071068 -0.7071068 120 120 120 255 0.1739005 0.4422995
-0.8138983 2.166252 0.09585045 -2.173075e-08 -0.7071068 0.7071067 120 120 120 255 0.1086612 0.4422995
-0.8138983 2.166252 -0.06676149 0 -0.7071068 -0.7071068 120 120 120 255 0.1086612 0.4422995
-0.6926794 2.166252 -0.06676149 0 -0.7071068 -0.7071068 120 120 120 255 0.1086612 0.4422995
-0.6926794 2.166252 0.09585046 -2.553363e-08 -0.7071068 0.7071068 120 120 120 255 0.1086612 0.4422995
0.6926793 2.328866 0.09585047 0 0.7071068 0.7071067 120 120 120 255 0.1739005 0.4422995
0.8138982 2.328866 0.09585047 0 0.7071068 0.7071068 120 120 120 255 0.1739005 0.4422995
0.6926793 2.166252 0.09585047 0 -0.7071068 0.7071068 120 120 120 255 0.1086612 0.4422995
0.8138982 2.166252 0.09585047 0 -0.7071068 0.7071068 120 120 120 255 0.1086612 0.4422995
0.6926793 2.166252 -0.06676149 0 -0.7071068 -0.7071067 120 120 120 255 0.1739005 0.4422995
0.6926793 2.328866 -0.06676149 0 0.7071068 -0.7071068 120 120 120 255 0.1739005 0.4422995
0.8138982 2.328866 -0.06676149 0 0.7071068 -0.7071068 120 120 120 255 0.1739005 0.4422995
0.8138982 2.166252 -0.06676149 0 -0.7071068 -0.7071068 120 120 120 255 0.1739005 0.4422995
-0.6926794 2.328866 0.09585046 -2.553363e-08 0.7071068 0.7071068 120 120 120 255 0.2348936 0.5114672
-0.6926794 2.166252 0.09585046 -2.553363e-08 -0.7071068 0.7071068 120 120 120 255 0.2348936 0.5114672
-0.6926794 2.328866 -0.06676149 0 0.7071068 -0.7071068 120 120 120 255 0.2662843 0.5114672
-0.6926794 2.328866 0.09585046 -2.553363e-08 0.7071068 0.7071068 120 120 120 255 0.2662843 0.5114672
0 2.328866 0.09585047 -3.802882e-09 0.7071068 0.7071067 120 120 120 255 0.2662843 0.5114672
-0.6926794 2.166252 -0.06676149 0 -0.7071068 -0.7071068 120 120 120 255 0.2348936 0.5114672
-0.6926794 2.328866 -0.06676149 0 0.7071068 -0.7071068 120 120 120 255 0.2348936 0.5114672
0 2.328866 -0.06676149 0 0.7071068 -0.7071067 120 120 120 255 0.2348936 0.5114672
-0.6926794 2.166252 0.09585046 -2.553363e-08 -0.7071068 0.7071068 120 120 120 255 0.1696544 0.5114672
-0.6926794 2.166252 -0.06676149 0 -0.7071068 -0.7071068 120 120 120 255 0.1696544 0.5114672
0 2.166252 -0.06676149 0 -0.7071068 -0.7071067 120 120 120 255 0.1696544 0.5114672
0 2.166252 0.09585047 -3.802882e-09 -0.7071068 0.7071067 120 120 120 255 0.1696544 0.5114672
0.6926793 2.328866 0.09585047 0 0.7071068 0.7071067 120 120 120 255 0.2662843 0.5114672
0.6926793 2.328866 -0.06676149 0 0.7071068 -0.7071068 120 120 120 255 0.2662843 0.5114672
0.6926793 2.166252 0.09585047 0 -0.7071068 0.7071068 120 120 120 255 0.2348936 0.5114672
0.6926793 2.328866 0.09585047 0 0.7071068 0.7071067 120 120 120 255 0.2348936 0.5114672
0.6926793 2.166252 -0.06676149 0 -0.7071068 -0.7071067 120 120 120 255 0.1696543 0.5114672
0.6926793 2.166252 0.09585047 0 -0.7071068 0.7071068 120 120 120 255 0.1696543 0.5114672
0.6926793 2.328866 -0.06676149 0 0.7071068 -0.7071068 120 120 120 255 0.2348936 0.5114672
0.6926793 2.166252 -0.06676149 0 -0.7071068 -0.7071067 120 120 120 255 0.2348936 0.5114672
0.8138982 2.328866 0.09585047 0 0.7071068 0.7071068 120 120 120 255 0.2348936 0.5114672
0.8138982 2.166252 0.09585047 0 -0.7071068 0.7071068 120 120 120 255 0.2348936 0.5114672
0.8658491 2.166252 0.09585047 0 -0.7071068 0.7071068 120 120 120 255 0.2348936 0.5114672
0.8658491 2.328866 0.09585047 0 0.7071068 0.7071068 120 120 120 255 0.2348936 0.5114672
0.8138982 2.328866 -0.06676149 0 0.7071068 -0.7071068 120 120 120 255 0.2662843 0.5114672
0.8138982 2.328866 0.09585047 0 0.7071068 0.7071068 120 120 120 255 0.2662843 0.5114672
0.8658491 2.328866 0.09585047 0 0.7071068 0.7071068 120 120 120 255 0.2662843 0.5114672
0.8658491 2.328866 -0.06676149 0 0.7071068 -0.7071068 120 120 120 255 0.2662843 0.5114672
0.8138982 2.166252 -0.06676149 0 -0.7071068 -0.7071068 120 120 120 255 0.2348936 0.5114672
0.8138982 2.328866 -0.06676149 0 0.7071068 -0.7071068 120 120 120 255 0.2348936 0.5114672
0.8658491 2.328866 -0.06676149 0 0.7071068 -0.7071068 120 120 120 255 0.2348936 0.5114672
0.8658491 2.166252 -0.06676149 0 -0.7071068 -0.7071068 120 120 120 255 0.2348936 0.5114672
0.8138982 2.166252 0.09585047 0 -0.7071068 0.7071068 120 120 120 255 0.1696543 0.5114672
0.8138982 2.166252 -0.06676149 0 -0.7071068 -0.7071068 120 120 120 255 0.1696543 0.5114672
0.8658491 2.166252 -0.06676149 0 -0.7071068 -0.7071068 120 120 120 255 0.1696543 0.5114672
0.8658491 2.166252 0.09585047 0 -0.7071068 0.7071068 120 120 120 255 0.1696543 0.5114672
-0.8658493 2.328866 -0.06676149 0 0.7071068 -0.7071067 120 120 120 255 0.2662843 0.5114672
-0.8658493 2.328866 0.09585045 2.738075e-08 0.7071068 0.7071067 120 120 120 255 0.2662843 0.5114672
-0.8138983 2.328866 0.09585045 -2.173075e-08 0.7071068 0.7071068 120 120 120 255 0.2662843 0.5114672
-0.8138983 2.328866 -0.06676149 0 0.7071068 -0.7071067 120 120 120 255 0.2662843 0.5114672
-0.8658493 2.328866 0.09585045 2.738075e-08 0.7071068 0.7071067 120 120 120 255 0.2348936 0.5114672
-0.8658493 2.166252 0.09585045 2.738074e-08 -0.7071068 0.7071067 120 120 120 255 0.2348936 0.5114672
-0.8138983 2.166252 0.09585045 -2.173075e-08 -0.7071068 0.7071067 120 120 120 255 0.2348936 0.5114672
-0.8138983 2.328866 0.09585045 -2.173075e-08 0.7071068 0.7071068 120 120 120 255 0.2348936 0.5114672
-0.8658493 2.166252 0.09585045 2.738074e-08 -0.7071068 0.7071067 120 120 120 255 0.1696544 0.5114672
-0.8658493 2.166252 -0.06676149 0 -0.7071068 -0.7071067 120 120 120 255 0.1696544 0.5114672
-0.8138983 2.166252 -0.06676149 0 -0.7071068 -0.7071068 120 120 120 255 0.1696544 0.5114672
-0.8138983 2.166252 0.09585045 -2.173075e-08 -0.7071068 0.7071067 120 120 120 255 0.1696544 0.5114672
-0.8658493 2.166252 -0.06676149 0 -0.7071068 -0.7071067 120 120 120 255 0.2348936 0.5114672
-0.8658493 2.328866 -0.06676149 0 0.7071068 -0.7071067 120 120 120 255 0.2348936 0.5114672
-0.8138983 2.328866 -0.06676149 0 0.7071068 -0.7071067 120 120 120 255 0.2348936 0.5114672
-0.8138983 2.166252 -0.06676149 0 -0.7071068 -0.7071068 120 120 120 255 0.2348936 0.5114672
3 0 1 2 
3 0 2 3 
3 4 5 6 
3 4 6 7 
3 8 9 10 
3 8 10 11 
3 12 13 14 
3 12 14 15 
3 169 170 171 
3 169 171 172 
3 173 174 175 
3 173 175 176 
3 16 17 18 
3 16 18 19 
3 177 20 21 
3 177 21 178 
3 179 22 23 
3 179 23 180 
3 181 182 183 
3 181 183 184 
3 24 25 26 
3 24 26 27 
3 28 29 30 
3 28 30 31 
3 185 32 33 
3 185 33 186 
3 34 187 188 
3 34 188 35 
3 189 190 1 
3 189 1 0 
3 191 192 3 
3 191 3 2 
3 193 194 9 
3 193 9 8 
3 195 196 11 
3 195 11 10 
3 197 198 170 
3 197 170 169 
3 199 200 172 
3 199 172 171 
3 201 202 174 
3 201 174 173 
3 203 204 176 
3 203 176 175 
3 205 206 36 
3 205 36 37 
3 38 39 207 
3 38 207 208 
3 209 210 211 
3 209 211 40 
3 212 213 214 
3 212 214 41 
3 215 216 42 
3 215 42 43 
3 216 217 44 
3 216 44 42 
3 217 218 45 
3 217 45 44 
3 218 215 43 
3 218 43 45 
3 219 220 221 
3 219 221 222 
3 223 224 225 
3 223 225 226 
3 227 228 229 
3 227 229 230 
3 231 232 233 
3 231 233 234 
3 235 236 46 
3 235 46 47 
3 235 47 48 
3 236 237 49 
3 236 49 50 
3 236 50 46 
3 237 238 51 
3 237 51 52 
3 237 52 49 
3 238 235 48 
3 238 48 53 
3 238 53 51 
3 54 239 55 
3 56 240 57 
3 241 58 59 
3 242 60 61 
3 62 63 64 
3 62 64 65 
3 66 67 68 
3 66 68 69 
3 243 244 245 
3 243 245 246 
3 247 248 249 
3 247 249 250 
3 70 251 71 
3 72 73 74 
3 72 74 252 
3 253 75 76 
3 13 74 73 
3 13 73 14 
3 254 12 15 
3 254 15 255 
3 256 257 77 
3 258 259 78 
3 258 78 260 
3 79 78 259 
3 79 259 261 
3 80 79 261 
3 80 261 262 
3 81 80 262 
3 81 262 82 
3 263 264 265 
3 255 15 80 
3 255 80 81 
3 15 14 79 
3 15 79 80 
3 14 73 78 
3 14 78 79 
3 260 78 73 
3 260 73 72 
3 266 12 254 
3 266 254 267 
3 268 13 12 
3 268 12 266 
3 269 74 13 
3 269 13 268 
3 252 74 269 
3 252 269 270 
3 58 251 70 
3 241 251 58 
3 71 271 272 
3 71 251 271 
3 60 257 256 
3 242 257 60 
3 77 273 274 
3 77 257 273 
3 75 239 54 
3 253 239 75 
3 55 275 276 
3 55 239 275 
3 264 240 56 
3 263 240 264 
3 57 277 278 
3 57 240 277 
3 279 280 83 
3 279 83 84 
3 280 281 85 
3 280 85 83 
3 282 279 84 
3 282 84 86 
3 283 284 87 
3 283 87 285 
3 284 286 88 
3 284 88 87 
3 286 287 288 
3 286 288 88 
3 289 290 89 
3 289 89 90 
3 290 291 91 
3 290 91 89 
3 292 289 90 
3 292 90 92 
3 291 293 93 
3 291 93 91 
3 293 294 94 
3 293 94 93 
3 294 292 92 
3 294 92 94 
3 295 296 95 
3 295 95 96 
3 296 297 97 
3 296 97 95 
3 298 295 96 
3 298 96 98 
3 299 300 99 
3 299 99 301 
3 300 302 100 
3 300 100 99 
3 302 303 304 
3 302 304 100 
3 305 306 307 
3 305 307 308 
3 306 309 310 
3 306 310 307 
3 311 305 308 
3 311 308 312 
3 309 313 314 
3 309 314 310 
3 313 315 316 
3 313 316 314 
3 315 311 312 
3 315 312 316 
3 101 102 103 
3 101 103 104 
3 317 318 105 
3 317 105 106 
3 319 320 107 
3 319 107 108 
3 321 322 323 
3 321 323 324 
3 325 326 327 
3 325 327 328 
3 329 330 331 
3 329 331 332 
3 109 110 111 
3 109 111 112 
3 333 334 113 
3 333 113 114 
3 335 336 115 
3 335 115 116 
3 337 338 339 
3 337 339 340 
3 341 342 343 
3 341 343 344 
3 117 118 119 
3 117 119 120 
3 345 346 121 
3 345 121 122 
3 347 348 123 
3 347 123 124 
3 349 350 351 
3 349 351 352 
3 353 354 355 
3 353 355 356 
3 125 126 127 
3 125 127 128 
3 129 357 358 
3 129 358 130 
3 131 359 360 
3 131 360 132 
3 361 362 363 
3 361 363 364 
3 133 134 135 
3 133 135 136 
3 137 138 139 
3 137 139 140 
3 141 142 143 
3 141 143 144 
3 365 145 146 
3 365 146 366 
3 367 147 148 
3 367 148 368 
3 369 370 371 
3 369 371 372 
3 373 374 375 
3 373 375 376 
3 377 378 379 
3 377 379 380 
3 381 382 383 
3 381 383 384 
3 385 386 387 
3 385 387 388 
3 389 390 391 
3 389 391 392 
3 393 394 395 
3 393 395 396 
3 397 398 399 
3 397 399 400 
3 401 402 403 
3 401 403 404 
3 149 150 151 
3 149 151 152 
3 153 405 406 
3 153 406 154 
3 155 407 408 
3 155 408 156 
3 409 410 411 
3 409 411 412 
3 157 158 159 
3 157 159 160 
3 413 161 162 
3 413 162 414 
3 415 163 164 
3 415 164 416 
3 417 418 419 
3 417 419 420 
3 421 422 165 
3 421 165 166 
3 423 424 425 
3 423 425 167 
3 426 427 428 
3 426 428 168 
3 429 430 431 
3 429 431 432 
3 167 425 433 
3 167 433 434 
3 166 165 435 
3 166 435 436 
3 432 431 437 
3 432 437 438 
3 168 428 439 
3 168 439 440 
3 441 442 443 
3 441 443 444 
3 445 446 447 
3 445 447 448 
3 449 450 451 
3 449 451 452 
3 453 454 455 
3 453 455 456 
3 457 458 459 
3 457 459 460 
3 461 462 463 
3 461 463 464 
3 465 466 467 
3 465 467 468 
3 469 470 471 
3 469 471 472 
