ply
format ascii 1.0
comment VCGLIB generated
element vertex 154
property float x
property float y
property float z
property float nx
property float ny
property float nz
property uchar red
property uchar green
property uchar blue
property uchar alpha
property float texture_u
property float texture_v
element face 90
property list uchar int vertex_indices
end_header
-0.332466 0.5501423 0.4301748 -0.3015111 0.904534 0.3015116 120 120 120 255 0.2381301 0.08767121
0.5278779 0.5501423 0.4301748 0.3015114 0.904534 0.3015113 120 120 120 255 0.2381301 0.08767121
0.5278779 0.7090095 0.4301748 0.6478886 0.4005953 0.6478918 120 120 120 255 0.2381301 0.08767121
-0.332466 0.7090095 0.4301748 -0.6478886 0.4005989 0.6478896 120 120 120 255 0.2381301 0.08767121
-0.2485846 1.39451 0.3462973 -0.5773503 0.5773503 0.5773503 120 120 120 255 0.2685877 0.08767121
0.4440042 1.39451 0.3462973 0.09235528 0.6798301 0.7275311 120 120 120 255 0.2685877 0.08767121
0.4440042 1.39451 -0.3462992 0.09235525 0.6798302 -0.7275311 120 120 120 255 0.2685877 0.08767121
-0.2485846 1.39451 -0.3462992 -0.5773503 0.5773503 -0.5773503 120 120 120 255 0.2685877 0.08767121
-0.332466 0.7090095 -0.4301691 -0.6478907 0.4005953 -0.6478897 120 120 120 255 0.2381301 0.08767121
0.5278779 0.7090095 -0.4301691 0.6478909 0.4005917 -0.6478918 120 120 120 255 0.2381301 0.08767121
0.5278779 0.5501423 -0.4301691 0.3015103 0.9045349 -0.3015099 120 120 120 255 0.2381301 0.08767121
-0.332466 0.5501423 -0.4301691 -0.3015101 0.9045349 -0.3015101 120 120 120 255 0.2381301 0.08767121
-0.4507521 0.5501428 -0.5484629 -0.57735 0.5773509 -0.5773501 120 120 120 255 0.3305135 0.06081834
-0.4507521 0.5501423 0.548461 -0.5773503 0.5773502 0.5773504 120 120 120 255 0.3305135 0.06081834
0.6461717 0.5501423 0.548461 0.5773503 0.5773504 0.5773502 120 120 120 255 0.3305135 0.06081834
0.6461717 0.5501428 -0.5484629 0.57735 0.577351 -0.5773498 120 120 120 255 0.3305135 0.06081834
-0.4507521 0.3988234 -0.5484629 -0.5773501 -0.5773503 -0.5773503 120 120 120 255 0.2683508 0.06088787
-0.4507521 0.3988233 0.548461 -0.5773503 -0.5773504 0.5773502 120 120 120 255 0.2683508 0.06088787
0.6461717 0.3988233 0.548461 0.5773503 -0.5773503 0.5773501 120 120 120 255 0.2981248 0.06088787
0.6461717 0.3988234 -0.5484629 0.5773503 -0.5773503 -0.5773504 120 120 120 255 0.2683508 0.06088787
-0.332466 0.3988234 -0.4301691 -0.364981 -0.8564926 -0.3649785 120 120 120 255 0.2053266 0.06119153
-0.332466 0.3988234 0.4301748 -0.3649749 -0.8564956 0.3649776 120 120 120 255 0.2053266 0.06119153
0.5278779 0.3988234 0.4301748 0.364975 -0.8564956 0.3649775 120 120 120 255 0.2053266 0.06119153
0.5278779 0.3988234 -0.4301691 0.3649811 -0.8564926 -0.3649784 120 120 120 255 0.2053266 0.06119153
-0.4090537 -7.049916e-15 -0.5067606 -0.6823869 0.2620903 -0.6823906 120 120 120 255 0.2629942 0.06303054
-0.4090537 -7.049916e-15 0.5067587 -0.6823928 0.2620781 0.6823893 120 120 120 255 0.2629942 0.06303054
0.6044656 -7.049916e-15 0.5067587 0.6823928 0.2620781 0.6823893 120 120 120 255 0.2927681 0.06303054
0.6044656 -7.049916e-15 -0.5067606 0.682387 0.2620903 -0.6823905 120 120 120 255 0.2629941 0.06303054
0.3635522 0.8638923 0.2658377 0.6717126 0.312486 0.6716805 120 120 120 255 0.2702881 0.08767121
-0.1681327 0.8638923 0.2658377 -0.6717043 0.3124952 0.6716846 120 120 120 255 0.2702881 0.08767121
-0.1681327 0.8638923 -0.2658396 -0.6717003 0.3124861 -0.6716928 120 120 120 255 0.2405141 0.08767121
0.3635522 0.8638923 -0.2658396 0.6717086 0.312477 -0.6716887 120 120 120 255 0.2702881 0.08767121
0.4440042 1.036074 0.3462973 0.4068603 -0.4641867 0.7867626 120 120 120 255 0.2036752 0.08767121
-0.2485846 1.036074 0.3462973 -0.6832908 -0.2573342 0.6832955 120 120 120 255 0.2036752 0.08767121
-0.2485846 1.036074 -0.3462992 -0.6832907 -0.2573342 -0.6832956 120 120 120 255 0.1739013 0.08767121
0.4440042 1.036074 -0.3462992 0.4068603 -0.4641867 -0.7867626 120 120 120 255 0.2036752 0.08767121
-0.9382018 1.276088 -0.05788518 -0.7190434 -0.48607 -0.4967018 120 120 120 255 0.2083562 0.08767121
-0.9382018 1.276088 0.05788325 -0.7190433 -0.4860699 0.4967018 120 120 120 255 0.2083562 0.08767121
-0.9382018 1.342775 0.05788325 -0.6403484 0.5927333 0.4884886 120 120 120 255 0.2083562 0.08767121
-0.9382018 1.342775 -0.05788518 -0.6403484 0.5927333 -0.4884887 120 120 120 255 0.2083562 0.08767121
0.938202 1.275089 0.2187719 0.7483988 -0.424401 0.5096892 120 120 120 255 0.2083562 0.08767121
0.938202 1.275089 -0.2187739 0.7483988 -0.424401 -0.5096893 120 120 120 255 0.2083561 0.08767121
0.938202 1.39451 -0.2187739 0.6372274 0.5918053 -0.4936677 120 120 120 255 0.2083561 0.08767121
0.938202 1.39451 0.2187719 0.6372273 0.5918053 0.4936677 120 120 120 255 0.2083562 0.08767121
-0.2485846 1.068182 0.2468481 -0.9508992 -0.2202665 0.2174242 120 120 120 255 0.2083562 0.08767121
-0.2485846 1.068182 -0.24685 -0.9508993 -0.2202665 -0.2174242 120 120 120 255 0.2083562 0.08767121
-0.2485846 1.342775 0.2468481 -0.9317333 0.2368347 0.275286 120 120 120 255 0.2083562 0.08767121
-0.2485846 1.342775 -0.24685 -0.9317333 0.2368347 -0.2752859 120 120 120 255 0.2083562 0.08767121
0.5278779 0.5501423 0.4301748 0.3015114 0.904534 0.3015113 120 120 120 255 0.2083562 0.08767121
0.5278779 0.5501423 -0.4301691 0.3015103 0.9045349 -0.3015099 120 120 120 255 0.2083561 0.08767121
0.5278779 0.7090095 -0.4301691 0.6478909 0.4005917 -0.6478918 120 120 120 255 0.2083561 0.08767121
0.5278779 0.7090095 0.4301748 0.6478886 0.4005953 0.6478918 120 120 120 255 0.2083562 0.08767121
-0.332466 0.5501423 -0.4301691 -0.3015101 0.9045349 -0.3015101 120 120 120 255 0.2083562 0.08767121
-0.332466 0.5501423 0.4301748 -0.3015111 0.904534 0.3015116 120 120 120 255 0.2083562 0.08767121
-0.332466 0.7090095 0.4301748 -0.6478886 0.4005989 0.6478896 120 120 120 255 0.2083562 0.08767121
-0.332466 0.7090095 -0.4301691 -0.6478907 0.4005953 -0.6478897 120 120 120 255 0.2083562 0.08767121
-0.332466 0.5501423 0.4301748 -0.3015111 0.904534 0.3015116 120 120 120 255 0.3305135 0.06081834
-0.332466 0.5501423 -0.4301691 -0.3015101 0.9045349 -0.3015101 120 120 120 255 0.3305135 0.06081834
0.5278779 0.5501423 0.4301748 0.3015114 0.904534 0.3015113 120 120 120 255 0.3305135 0.06081834
0.5278779 0.5501423 -0.4301691 0.3015103 0.9045349 -0.3015099 120 120 120 255 0.3305135 0.06081834
-0.4507521 0.5501423 0.548461 -0.5773503 0.5773502 0.5773504 120 120 120 255 0.2683508 0.06088787
-0.4507521 0.5501428 -0.5484629 -0.57735 0.5773509 -0.5773501 120 120 120 255 0.2683508 0.06088787
-0.4507521 0.3988233 0.548461 -0.5773503 -0.5773504 0.5773502 120 120 120 255 0.2981248 0.06088787
0.6461717 0.5501423 0.548461 0.5773503 0.5773504 0.5773502 120 120 120 255 0.2981248 0.06088787
-0.4507521 0.5501423 0.548461 -0.5773503 0.5773502 0.5773504 120 120 120 255 0.2981248 0.06088787
0.6461717 0.3988233 0.548461 0.5773503 -0.5773503 0.5773501 120 120 120 255 0.2683508 0.06088787
0.6461717 0.5501428 -0.5484629 0.57735 0.577351 -0.5773498 120 120 120 255 0.2683508 0.06088787
0.6461717 0.5501423 0.548461 0.5773503 0.5773504 0.5773502 120 120 120 255 0.2683508 0.06088787
-0.4507521 0.5501428 -0.5484629 -0.57735 0.5773509 -0.5773501 120 120 120 255 0.2981248 0.06088787
0.6461717 0.5501428 -0.5484629 0.57735 0.577351 -0.5773498 120 120 120 255 0.2981248 0.06088787
0.6461717 0.3988234 -0.5484629 0.5773503 -0.5773503 -0.5773504 120 120 120 255 0.2981248 0.06088787
-0.4507521 0.3988234 -0.5484629 -0.5773501 -0.5773503 -0.5773503 120 120 120 255 0.2981248 0.06088787
-0.4507521 0.3988233 0.548461 -0.5773503 -0.5773504 0.5773502 120 120 120 255 0.2053266 0.06119153
-0.4507521 0.3988234 -0.5484629 -0.5773501 -0.5773503 -0.5773503 120 120 120 255 0.2053266 0.06119153
0.6461717 0.3988233 0.548461 0.5773503 -0.5773503 0.5773501 120 120 120 255 0.2053266 0.06119153
0.6461717 0.3988234 -0.5484629 0.5773503 -0.5773503 -0.5773504 120 120 120 255 0.2053266 0.06119153
-0.332466 0.3988234 0.4301748 -0.3649749 -0.8564956 0.3649776 120 120 120 255 0.2629942 0.06303054
-0.332466 0.3988234 -0.4301691 -0.364981 -0.8564926 -0.3649785 120 120 120 255 0.2629942 0.06303054
-0.4090537 -7.049916e-15 0.5067587 -0.6823928 0.2620781 0.6823893 120 120 120 255 0.2927682 0.06303054
0.5278779 0.3988234 0.4301748 0.364975 -0.8564956 0.3649775 120 120 120 255 0.2927681 0.06303054
-0.332466 0.3988234 0.4301748 -0.3649749 -0.8564956 0.3649776 120 120 120 255 0.2927682 0.06303054
0.6044656 -7.049916e-15 0.5067587 0.6823928 0.2620781 0.6823893 120 120 120 255 0.2629942 0.06303054
0.5278779 0.3988234 -0.4301691 0.3649811 -0.8564926 -0.3649784 120 120 120 255 0.2629941 0.06303054
0.5278779 0.3988234 0.4301748 0.364975 -0.8564956 0.3649775 120 120 120 255 0.2629942 0.06303054
-0.332466 0.3988234 -0.4301691 -0.364981 -0.8564926 -0.3649785 120 120 120 255 0.2927682 0.06303054
0.5278779 0.3988234 -0.4301691 0.3649811 -0.8564926 -0.3649784 120 120 120 255 0.2927681 0.06303054
0.6044656 -7.049916e-15 -0.5067606 0.682387 0.2620903 -0.6823905 120 120 120 255 0.2927681 0.06303054
-0.4090537 -7.049916e-15 -0.5067606 -0.6823869 0.2620903 -0.6823906 120 120 120 255 0.2927682 0.06303054
-0.332466 0.7090095 0.4301748 -0.6478886 0.4005989 0.6478896 120 120 120 255 0.2702881 0.08767121
0.5278779 0.7090095 0.4301748 0.6478886 0.4005953 0.6478918 120 120 120 255 0.2702881 0.08767121
-0.332466 0.7090095 -0.4301691 -0.6478907 0.4005953 -0.6478897 120 120 120 255 0.2405141 0.08767121
-0.332466 0.7090095 0.4301748 -0.6478886 0.4005989 0.6478896 120 120 120 255 0.2405141 0.08767121
-0.1681327 0.8638923 0.2658377 -0.6717043 0.3124952 0.6716846 120 120 120 255 0.2405141 0.08767121
-0.1681327 0.8638923 -0.2658396 -0.6717003 0.3124861 -0.6716928 120 120 120 255 0.2702881 0.08767121
0.5278779 0.7090095 -0.4301691 0.6478909 0.4005917 -0.6478918 120 120 120 255 0.2702881 0.08767121
-0.332466 0.7090095 -0.4301691 -0.6478907 0.4005953 -0.6478897 120 120 120 255 0.2702881 0.08767121
0.5278779 0.7090095 0.4301748 0.6478886 0.4005953 0.6478918 120 120 120 255 0.2405141 0.08767121
0.5278779 0.7090095 -0.4301691 0.6478909 0.4005917 -0.6478918 120 120 120 255 0.2405141 0.08767121
0.3635522 0.8638923 -0.2658396 0.6717086 0.312477 -0.6716887 120 120 120 255 0.2405141 0.08767121
0.3635522 0.8638923 0.2658377 0.6717126 0.312486 0.6716805 120 120 120 255 0.2405141 0.08767121
-0.1681327 0.8638923 0.2658377 -0.6717043 0.3124952 0.6716846 120 120 120 255 0.2036752 0.08767121
0.3635522 0.8638923 0.2658377 0.6717126 0.312486 0.6716805 120 120 120 255 0.2036752 0.08767121
-0.1681327 0.8638923 -0.2658396 -0.6717003 0.3124861 -0.6716928 120 120 120 255 0.1739013 0.08767121
-0.1681327 0.8638923 0.2658377 -0.6717043 0.3124952 0.6716846 120 120 120 255 0.1739013 0.08767121
-0.2485846 1.036074 0.3462973 -0.6832908 -0.2573342 0.6832955 120 120 120 255 0.1739013 0.08767121
-0.2485846 1.036074 -0.3462992 -0.6832907 -0.2573342 -0.6832956 120 120 120 255 0.2036752 0.08767121
0.3635522 0.8638923 -0.2658396 0.6717086 0.312477 -0.6716887 120 120 120 255 0.2036752 0.08767121
-0.1681327 0.8638923 -0.2658396 -0.6717003 0.3124861 -0.6716928 120 120 120 255 0.2036752 0.08767121
0.3635522 0.8638923 0.2658377 0.6717126 0.312486 0.6716805 120 120 120 255 0.1739012 0.08767121
0.3635522 0.8638923 -0.2658396 0.6717086 0.312477 -0.6716887 120 120 120 255 0.1739012 0.08767121
0.4440042 1.036074 -0.3462992 0.4068603 -0.4641867 -0.7867626 120 120 120 255 0.1739012 0.08767121
0.4440042 1.036074 0.3462973 0.4068603 -0.4641867 0.7867626 120 120 120 255 0.1739012 0.08767121
-0.2485846 1.036074 0.3462973 -0.6832908 -0.2573342 0.6832955 120 120 120 255 0.2381301 0.08767121
0.4440042 1.036074 0.3462973 0.4068603 -0.4641867 0.7867626 120 120 120 255 0.2381301 0.08767121
0.4440042 1.39451 0.3462973 0.09235528 0.6798301 0.7275311 120 120 120 255 0.2381301 0.08767121
-0.2485846 1.39451 0.3462973 -0.5773503 0.5773503 0.5773503 120 120 120 255 0.2381301 0.08767121
-0.2485846 1.39451 -0.3462992 -0.5773503 0.5773503 -0.5773503 120 120 120 255 0.2381301 0.08767121
0.4440042 1.39451 -0.3462992 0.09235525 0.6798302 -0.7275311 120 120 120 255 0.2381301 0.08767121
0.4440042 1.036074 -0.3462992 0.4068603 -0.4641867 -0.7867626 120 120 120 255 0.2381301 0.08767121
-0.2485846 1.036074 -0.3462992 -0.6832907 -0.2573342 -0.6832956 120 120 120 255 0.2381301 0.08767121
0.938202 1.275089 -0.2187739 0.7483988 -0.424401 -0.5096893 120 120 120 255 0.1739012 0.08767121
0.938202 1.275089 0.2187719 0.7483988 -0.424401 0.5096892 120 120 120 255 0.1739012 0.08767121
0.4440042 1.036074 -0.3462992 0.4068603 -0.4641867 -0.7867626 120 120 120 255 0.2370685 0.08767121
0.4440042 1.39451 -0.3462992 0.09235525 0.6798302 -0.7275311 120 120 120 255 0.2370685 0.08767121
0.938202 1.39451 -0.2187739 0.6372274 0.5918053 -0.4936677 120 120 120 255 0.2370685 0.08767121
0.938202 1.275089 -0.2187739 0.7483988 -0.424401 -0.5096893 120 120 120 255 0.2370685 0.08767121
0.4440042 1.39451 -0.3462992 0.09235525 0.6798302 -0.7275311 120 120 120 255 0.274969 0.08767121
0.4440042 1.39451 0.3462973 0.09235528 0.6798301 0.7275311 120 120 120 255 0.274969 0.08767121
0.938202 1.39451 0.2187719 0.6372273 0.5918053 0.4936677 120 120 120 255 0.274969 0.08767121
0.938202 1.39451 -0.2187739 0.6372274 0.5918053 -0.4936677 120 120 120 255 0.274969 0.08767121
0.4440042 1.39451 0.3462973 0.09235528 0.6798301 0.7275311 120 120 120 255 0.2370686 0.08767121
0.4440042 1.036074 0.3462973 0.4068603 -0.4641867 0.7867626 120 120 120 255 0.2370686 0.08767121
0.938202 1.275089 0.2187719 0.7483988 -0.424401 0.5096892 120 120 120 255 0.2370686 0.08767121
0.938202 1.39451 0.2187719 0.6372273 0.5918053 0.4936677 120 120 120 255 0.2370686 0.08767121
-0.2485846 1.036074 -0.3462992 -0.6832907 -0.2573342 -0.6832956 120 120 120 255 0.2083562 0.08767121
-0.2485846 1.036074 0.3462973 -0.6832908 -0.2573342 0.6832955 120 120 120 255 0.2083562 0.08767121
-0.2485846 1.39451 0.3462973 -0.5773503 0.5773503 0.5773503 120 120 120 255 0.2083562 0.08767121
-0.2485846 1.39451 -0.3462992 -0.5773503 0.5773503 -0.5773503 120 120 120 255 0.2083562 0.08767121
-0.2485846 1.068182 -0.24685 -0.9508993 -0.2202665 -0.2174242 120 120 120 255 0.1739013 0.08767121
-0.2485846 1.068182 0.2468481 -0.9508992 -0.2202665 0.2174242 120 120 120 255 0.1739013 0.08767121
-0.9382018 1.276088 0.05788325 -0.7190433 -0.4860699 0.4967018 120 120 120 255 0.1739013 0.08767121
-0.9382018 1.276088 -0.05788518 -0.7190434 -0.48607 -0.4967018 120 120 120 255 0.1739013 0.08767121
-0.2485846 1.068182 0.2468481 -0.9508992 -0.2202665 0.2174242 120 120 120 255 0.2370686 0.08767121
-0.2485846 1.342775 0.2468481 -0.9317333 0.2368347 0.275286 120 120 120 255 0.2370686 0.08767121
-0.9382018 1.342775 0.05788325 -0.6403484 0.5927333 0.4884886 120 120 120 255 0.2370686 0.08767121
-0.9382018 1.276088 0.05788325 -0.7190433 -0.4860699 0.4967018 120 120 120 255 0.2370686 0.08767121
-0.2485846 1.342775 0.2468481 -0.9317333 0.2368347 0.275286 120 120 120 255 0.274969 0.08767121
-0.2485846 1.342775 -0.24685 -0.9317333 0.2368347 -0.2752859 120 120 120 255 0.274969 0.08767121
-0.9382018 1.342775 -0.05788518 -0.6403484 0.5927333 -0.4884887 120 120 120 255 0.274969 0.08767121
-0.9382018 1.342775 0.05788325 -0.6403484 0.5927333 0.4884886 120 120 120 255 0.274969 0.08767121
-0.2485846 1.342775 -0.24685 -0.9317333 0.2368347 -0.2752859 120 120 120 255 0.2370686 0.08767121
-0.2485846 1.068182 -0.24685 -0.9508993 -0.2202665 -0.2174242 120 120 120 255 0.2370686 0.08767121
-0.9382018 1.276088 -0.05788518 -0.7190434 -0.48607 -0.4967018 120 120 120 255 0.2370686 0.08767121
-0.9382018 1.342775 -0.05788518 -0.6403484 0.5927333 -0.4884887 120 120 120 255 0.2370686 0.08767121
3 0 1 2 
3 0 2 3 
3 4 5 6 
3 4 6 7 
3 8 9 10 
3 8 10 11 
3 48 49 50 
3 48 50 51 
3 52 53 54 
3 52 54 55 
3 12 13 56 
3 12 56 57 
3 13 14 58 
3 13 58 56 
3 14 15 59 
3 14 59 58 
3 57 59 15 
3 57 15 12 
3 16 17 60 
3 16 60 61 
3 62 18 63 
3 62 63 64 
3 65 19 66 
3 65 66 67 
3 68 69 70 
3 68 70 71 
3 20 21 72 
3 20 72 73 
3 21 22 74 
3 21 74 72 
3 22 23 75 
3 22 75 74 
3 73 75 23 
3 73 23 20 
3 24 25 76 
3 24 76 77 
3 78 26 79 
3 78 79 80 
3 81 27 82 
3 81 82 83 
3 84 85 86 
3 84 86 87 
3 88 89 28 
3 88 28 29 
3 90 91 92 
3 90 92 30 
3 93 31 94 
3 93 94 95 
3 96 97 98 
3 96 98 99 
3 100 101 32 
3 100 32 33 
3 102 103 104 
3 102 104 34 
3 105 35 106 
3 105 106 107 
3 108 109 110 
3 108 110 111 
3 112 113 114 
3 112 114 115 
3 36 37 38 
3 36 38 39 
3 116 117 118 
3 116 118 119 
3 40 41 42 
3 40 42 43 
3 111 110 120 
3 111 120 121 
3 122 123 124 
3 122 124 125 
3 126 127 128 
3 126 128 129 
3 130 131 132 
3 130 132 133 
3 134 135 44 
3 134 44 45 
3 135 136 46 
3 135 46 44 
3 136 137 47 
3 136 47 46 
3 137 134 45 
3 137 45 47 
3 138 139 140 
3 138 140 141 
3 142 143 144 
3 142 144 145 
3 146 147 148 
3 146 148 149 
3 150 151 152 
3 150 152 153 
