ply
format ascii 1.0
comment VCGLIB generated
element vertex 193
property float x
property float y
property float z
property float nx
property float ny
property float nz
property uchar red
property uchar green
property uchar blue
property uchar alpha
property float texture_u
property float texture_v
element face 330
property list uchar int vertex_indices
end_header
1.227725 0.2503638 0.001683934 0.9760388 0.217582 -0.002531844 120 120 120 255 1.227725 0.2503638
1.227861 0.06425931 0.1230233 0.8889123 0.002256698 0.4580718 120 120 120 255 1.227861 0.06425931
1.249905 -0.0733835 -0.001663996 0.9983966 -0.05640346 -0.004797614 120 120 120 255 1.249905 -0.0733835
0.8569766 0.5590724 0.2496296 -0.03026125 -0.007269872 0.9995156 120 120 120 255 0.8569766 0.5590724
0.8841228 -0.05639387 0.2167614 -0.5379675 0.01100281 0.8428938 120 120 120 255 0.8841228 -0.05639387
0.9974208 -0.2776925 0.2504607 0.001290689 -0.004783773 0.9999878 120 120 120 255 0.9974208 -0.2776925
0.7117082 0.2415926 1.14316e-08 -0.9042484 -0.3130261 -0.29043 120 120 120 255 0.7117082 0.2415926
0.7828168 0.09930065 -0.1261069 -0.8831665 -0.1184729 -0.4538515 120 120 120 255 0.7828168 0.09930065
0.754625 -0.005378118 -0.001834304 -0.9609918 0.03029361 -0.274913 120 120 120 255 0.754625 -0.005378118
0.878904 0.1334264 -0.2159949 -0.5441558 -0.07844783 -0.8353086 120 120 120 255 0.878904 0.1334264
0.8807321 0.5084912 -0.25 -0.03065322 -0.003575529 -0.9995237 120 120 120 255 0.8807321 0.5084912
1.00813 -0.1327228 -0.2506264 -0.03900738 0.01036816 -0.9991852 120 120 120 255 1.00813 -0.1327228
1.099983 0.2978817 -0.2180466 0.48884 0.1165594 -0.8645515 120 120 120 255 1.099983 0.2978817
1.131388 0.4686366 -0.1253725 0.7926587 0.334003 -0.5100335 120 120 120 255 1.131388 0.4686366
1.223461 -0.01443102 -0.1233621 0.8810039 -0.02364803 -0.4725176 120 120 120 255 1.223461 -0.01443102
1.094 0.5395005 0.1250947 0.7823168 0.3492656 0.5157461 120 120 120 255 1.094 0.5395005
1.137394 0.07454883 0.2153989 0.5431827 0.02390875 0.839274 120 120 120 255 1.137394 0.07454883
0.9720419 0.5777318 0.216855 0.4528623 0.2872861 0.8440275 120 120 120 255 0.9720419 0.5777318
0.7609414 0.459612 0.2159949 -0.5133201 -0.2948371 0.8059613 120 120 120 255 0.7609414 0.459612
0.6806537 0.3929754 0.1220344 -0.7767443 -0.4498053 0.4408441 120 120 120 255 0.6806537 0.3929754
0.7827218 0.1030472 0.1275416 -0.8675444 -0.1326106 0.479355 120 120 120 255 0.7827218 0.1030472
0.6836583 0.3885407 -0.1234289 -0.7640556 -0.4306578 -0.4803676 120 120 120 255 0.6836583 0.3885407
0.5698705 0.499763 1.308388e-09 -0.7108451 -0.6423501 -0.2865058 120 120 120 255 0.5698705 0.499763
0.8096291 0.7893922 -0.216855 0.3704394 0.328925 -0.8686674 120 120 120 255 0.8096291 0.7893922
0.8259353 0.941799 -1.184408e-09 0.6380955 0.7666412 -0.07138294 120 120 120 255 0.8259353 0.941799
0.8088123 0.9222739 0.1257109 0.5778902 0.6632286 0.4755742 120 120 120 255 0.8088123 0.9222739
1.081881 0.6382576 -0.002879818 0.8480357 0.529865 0.008867506 120 120 120 255 1.081881 0.6382576
0.6175177 0.9535547 0.2170743 0.2655039 0.4273282 0.8642328 120 120 120 255 0.6175177 0.9535547
0.4485784 0.6525832 0.1262731 -0.5157909 -0.705112 0.4865973 120 120 120 255 0.4485784 0.6525832
0.5698705 0.499763 1.308388e-09 -0.7126891 -0.6383162 0.2909068 120 120 120 255 0.5698705 0.499763
0.4115458 0.6813626 -0.1238413 -0.4736556 -0.7316989 -0.4901704 120 120 120 255 0.4115458 0.6813626
0.688961 0.546909 -0.2164147 -0.3952554 -0.3338296 -0.8557634 120 120 120 255 0.688961 0.546909
0.4559107 0.9007898 -0.2497664 -0.01315003 -0.01497254 -0.9998015 120 120 120 255 0.4559107 0.9007898
0.4810671 1.161397 -3.148173e-08 0.3667046 0.9303001 -0.008332837 120 120 120 255 0.4810671 1.161397
0.4000065 0.9224544 0.25 -0.008291639 -0.02449606 0.9996656 120 120 120 255 0.4000065 0.9224544
0.4272242 0.7689317 0.2164147 -0.2499942 -0.449999 0.8573236 120 120 120 255 0.4272242 0.7689317
0.2838138 0.6992407 0.001834351 -0.3150538 -0.9008304 -0.2987402 120 120 120 255 0.2838138 0.6992407
0.3805846 1.070397 -0.2170743 0.1810602 0.4856913 -0.8551732 120 120 120 255 0.3805846 1.070397
0.8574547 0.8691859 -0.1274395 0.5911925 0.6077231 -0.5302491 120 120 120 255 0.8574547 0.8691859
0.4737753 1.127509 -0.1257119 0.3762319 0.8040254 -0.4604267 120 120 120 255 0.4737753 1.127509
0.2469842 1.206774 0.1229841 0.1445275 0.8478085 0.510228 120 120 120 255 0.2469842 1.206774
0.2100105 1.107274 0.2167007 0.08011231 0.4336098 0.8975325 120 120 120 255 0.2100105 1.107274
0.162073 0.7680707 0.1249415 -0.1911965 -0.8456196 0.4983687 120 120 120 255 0.162073 0.7680707
0.2838138 0.6992407 0.001834351 -0.3561011 -0.8809194 0.311726 120 120 120 255 0.2838138 0.6992407
0.09038927 1.248791 0.00166395 0.08357424 0.9964368 -0.01135828 120 120 120 255 0.09038927 1.248791
-0.1237826 1.010447 0.2503194 0.01361761 -0.009810788 0.9998592 120 120 120 255 -0.1237826 1.010447
0.05535523 0.8799728 0.2157011 -0.02985388 -0.5152123 0.8565425 120 120 120 255 0.05535523 0.8799728
0.003726747 0.789081 -0.1261069 -0.07330529 -0.866827 -0.493191 120 120 120 255 0.003726747 0.789081
0.3760456 0.7997881 -0.2162708 -0.1855811 -0.481139 -0.8567759 120 120 120 255 0.3760456 0.7997881
-0.1237826 1.010447 -0.2496806 0.0002318735 -0.01347741 -0.9999092 120 120 120 255 -0.1237826 1.010447
0.07982152 1.217843 -0.1226459 0.06095435 0.882826 -0.4657283 120 120 120 255 0.07982152 1.217843
-0.2182388 1.112425 0.2175417 -0.07836776 0.5427369 0.8362387 120 120 120 255 -0.2182388 1.112425
-0.09516426 0.7815193 0.1233222 0.1189879 -0.8395852 0.5300365 120 120 120 255 -0.09516426 0.7815193
-0.05736703 0.755018 -0.002439975 0.09390678 -0.9526119 0.2893303 120 120 120 255 -0.05736703 0.755018
-0.1495544 1.123063 -0.2161633 -0.05917213 0.5268823 -0.847876 120 120 120 255 -0.1495544 1.123063
-0.2385243 1.23008 -0.001683788 -0.1561843 0.9872403 0.03103525 120 120 120 255 -0.2385243 1.23008
-0.3278525 1.177618 0.127605 -0.251717 0.8249575 0.5060471 120 120 120 255 -0.3278525 1.177618
-0.3854219 1.1637 -0.1287425 -0.2881227 0.8189638 -0.4962697 120 120 120 255 -0.3854219 1.1637
-0.4309812 0.7782885 0.216646 0.2654617 -0.5021168 0.8230485 120 120 120 255 -0.4309812 0.7782885
-0.2549913 0.7424598 -0.1247713 0.280314 -0.8240835 -0.4922504 120 120 120 255 -0.2549913 0.7424598
-0.07422906 0.8806596 -0.2162708 0.05740626 -0.5543854 -0.830278 120 120 120 255 -0.07422906 0.8806596
-0.5540372 1.123476 -2.279442e-08 -0.4613608 0.8869696 -0.02076706 120 120 120 255 -0.5540372 1.123476
-0.3497893 0.7036681 0.1256703 0.3702324 -0.7979357 0.4756328 120 120 120 255 -0.3497893 0.7036681
-0.3771265 0.6532017 -1.02604e-08 0.4610203 -0.835284 -0.2996015 120 120 120 255 -0.3771265 0.6532017
-0.05736703 0.755018 -0.002439975 0.103992 -0.9492188 -0.2969331 120 120 120 255 -0.05736703 0.755018
-0.6267049 0.9379312 0.2165409 -0.2604343 0.4120328 0.873157 120 120 120 255 -0.6267049 0.9379312
-0.8202142 0.6293725 0.25 0.02343034 -0.02815497 0.9993289 120 120 120 255 -0.8202142 0.6293725
-0.4853262 0.619909 -0.1233223 0.5711867 -0.6589444 -0.4894263 120 120 120 255 -0.4853262 0.619909
-0.4901933 0.7336261 -0.2163043 0.2639293 -0.441707 -0.8574592 120 120 120 255 -0.4901933 0.7336261
-0.6577517 0.765924 -0.2502336 0.02089363 -0.01641279 -0.999647 120 120 120 255 -0.6577517 0.765924
-0.5669256 0.9764125 -0.2171752 -0.2531201 0.4205481 -0.871246 120 120 120 255 -0.5669256 0.9764125
-0.825936 0.9417984 4.58839e-08 -0.6608515 0.7502956 -0.01821765 120 120 120 255 -0.825936 0.9417984
-0.8088124 0.9222739 0.1257109 -0.5808411 0.6606594 0.4755552 120 120 120 255 -0.8088124 0.9222739
-0.9085374 0.8272258 -0.1258287 -0.6165782 0.6276373 -0.4752924 120 120 120 255 -0.9085374 0.8272258
-0.6019584 0.4551196 0.001834282 0.7564446 -0.5875226 -0.2874175 120 120 120 255 -0.6019584 0.4551196
-0.9345274 0.6475516 -0.2161669 -0.4230976 0.2623087 -0.8672847 120 120 120 255 -0.9345274 0.6475516
-1.041548 0.69594 -1.986614e-08 -0.8326126 0.5538332 0.005001968 120 120 120 255 -1.041548 0.69594
-0.7544527 0.4523027 0.2164147 0.4715917 -0.2773623 0.8370612 120 120 120 255 -0.7544527 0.4523027
-0.5974385 0.5161512 0.1225897 0.6444446 -0.5790811 0.499356 120 120 120 255 -0.5974385 0.5161512
-0.7624885 0.4417376 -0.2167732 0.4340259 -0.2718263 -0.8589133 120 120 120 255 -0.7624885 0.4417376
-1.086793 0.5517285 0.1250908 -0.7834465 0.4082043 0.4685947 120 120 120 255 -1.086793 0.5517285
-0.9558878 0.6155836 0.2161669 -0.4817052 0.2821964 0.8296538 120 120 120 255 -0.9558878 0.6155836
-0.9809004 0.2723211 -0.2503194 -0.02108605 -0.002007632 -0.9997756 120 120 120 255 -0.9809004 0.2723211
-1.182845 0.4105202 0.001663873 -0.9484949 0.3147455 0.03595402 120 120 120 255 -1.182845 0.4105202
-0.7883809 0.1148945 0.1262051 0.8366436 -0.2951256 0.4614417 120 120 120 255 -0.7883809 0.1148945
-0.6019584 0.4551196 0.001834282 0.8170483 -0.5289069 0.229542 120 120 120 255 -0.6019584 0.4551196
-1.154107 0.3958518 -0.1239591 -0.8312781 0.2947494 -0.4712742 120 120 120 255 -1.154107 0.3958518
-1.213945 0.1656553 0.1232812 -0.8144757 0.2249745 0.5348045 120 120 120 255 -1.213945 0.1656553
-1.141735 -0.01955387 0.2181995 -0.3575678 0.1050857 0.927956 120 120 120 255 -1.141735 -0.01955387
-0.8699722 0.1269863 0.2159521 0.4491513 -0.150469 0.8806942 120 120 120 255 -0.8699722 0.1269863
-0.8863549 0.002360915 -0.2153084 0.5502903 -0.1344811 -0.8240725 120 120 120 255 -0.8863549 0.002360915
-1.145473 2.209488e-07 -0.2172868 -0.5650041 0.154107 -0.8105686 120 120 120 255 -1.145473 2.209488e-07
-1.257708 0.008963481 0.003057126 -0.9763417 0.1849196 -0.1120794 120 120 120 255 -1.257708 0.008963481
-1.008062 -0.05556467 0.2497664 0.07486245 -0.02087144 0.9969755 120 120 120 255 -1.008062 -0.05556467
-1.216554 0.07537478 -0.1253553 -0.8714321 0.1718066 -0.4594438 120 120 120 255 -1.216554 0.07537478
-0.7441391 -0.1400008 0.002439971 0.9343963 -0.04532866 -0.3533396 120 120 120 255 -0.7441391 -0.1400008
-0.7885611 -0.06646602 -0.1244663 0.8949942 -0.1176759 -0.4302764 120 120 120 255 -0.7885611 -0.06646602
-0.7297931 0.1882136 -0.001727876 0.9349199 -0.2094866 -0.2864266 120 120 120 255 -0.7297931 0.1882136
-1.161193 -0.4017287 0.1262929 -0.8398358 -0.2808534 0.4645399 120 120 120 255 -1.161193 -0.4017287
-1.141735 -0.01955387 0.2181995 -0.4991072 -0.1101348 0.8595129 120 120 120 255 -1.141735 -0.01955387
-1.213945 0.1656553 0.1232812 -0.8798679 -0.07931747 0.4685524 120 120 120 255 -1.213945 0.1656553
-0.8420545 -0.2700491 0.2167703 0.5137858 0.1767516 0.8395136 120 120 120 255 -0.8420545 -0.2700491
-0.7883809 0.1148945 0.1262051 0.8433675 0.08831196 0.5300304 120 120 120 255 -0.7883809 0.1148945
-0.8699722 0.1269863 0.2159521 0.5034279 0.03717773 0.8632371 120 120 120 255 -0.8699722 0.1269863
-0.8863549 0.002360915 -0.2153084 0.4670354 0.1005233 -0.8785061 120 120 120 255 -0.8863549 0.002360915
-0.9425341 -0.3785295 -0.2496983 0.02738122 0.006328103 -0.9996051 120 120 120 255 -0.9425341 -0.3785295
-0.9809004 0.2723211 -0.2503194 0.1180285 0.006009913 -0.992992 120 120 120 255 -0.9809004 0.2723211
-1.145473 2.209488e-07 -0.2172868 -0.4984124 -0.09869152 -0.8613043 120 120 120 255 -1.145473 2.209488e-07
-1.181465 -0.3079844 -0.1274395 -0.8359349 -0.207544 -0.5080732 120 120 120 255 -1.181465 -0.3079844
-1.216554 0.07537478 -0.1253553 -0.8835168 -0.07835938 -0.4617984 120 120 120 255 -1.216554 0.07537478
-0.7439185 -0.252526 0.1249391 0.8391063 0.298418 0.4548047 120 120 120 255 -0.7439185 -0.252526
-0.7441391 -0.1400008 0.002439971 0.9341803 0.2636034 0.2404589 120 120 120 255 -0.7441391 -0.1400008
-1.186035 -0.4026037 -0.003449414 -0.9409459 -0.3290684 -0.07959182 120 120 120 255 -1.186035 -0.4026037
-1.257708 0.008963481 0.003057126 -0.990792 -0.1321134 0.02961718 120 120 120 255 -1.257708 0.008963481
-0.8416815 -0.562393 0.25 -0.005041212 0.008947931 0.9999472 120 120 120 255 -0.8416815 -0.562393
-1.008062 -0.05556467 0.2497664 0.1007422 0.01480187 0.9948025 120 120 120 255 -1.008062 -0.05556467
-0.7885611 -0.06646602 -0.1244663 0.8039093 0.2681994 -0.5308474 120 120 120 255 -0.7885611 -0.06646602
-0.7628177 -0.4404131 -0.2164005 0.4461939 0.2493164 -0.859507 120 120 120 255 -0.7628177 -0.4404131
-1.041548 -0.6959395 -2.763503e-09 -0.8133252 -0.5815462 -0.01749876 120 120 120 255 -1.041548 -0.6959395
-0.5744461 -0.4953842 -0.002595889 0.7174336 0.6297434 0.297846 120 120 120 255 -0.5744461 -0.4953842
-0.5744461 -0.4953842 -0.002595889 0.6886466 0.6598678 -0.3005669 120 120 120 255 -0.5744461 -0.4953842
-0.6525834 -0.4485781 -0.1262731 0.718203 0.4920138 -0.4920435 120 120 120 255 -0.6525834 -0.4485781
-0.7441391 -0.1400008 0.002439971 0.8921956 0.3717219 -0.2565343 120 120 120 255 -0.7441391 -0.1400008
-0.9409215 -0.6322845 -0.2175417 -0.4233876 -0.2864221 -0.8594797 120 120 120 255 -0.9409215 -0.6322845
-1.017664 -0.6702493 -0.1263548 -0.7526309 -0.4752988 -0.4556728 120 120 120 255 -1.017664 -0.6702493
-0.8691861 -0.8574545 0.1274395 -0.611601 -0.5977479 0.5183066 120 120 120 255 -0.8691861 -0.8574545
-0.943234 -0.630248 0.2167662 -0.4245189 -0.2825792 0.8601934 120 120 120 255 -0.943234 -0.630248
-0.5423601 -0.7068173 0.2158993 0.3232353 0.4265942 0.8447108 120 120 120 255 -0.5423601 -0.7068173
-0.5939927 -0.5209172 0.1245422 0.6462918 0.5404609 0.5387104 120 120 120 255 -0.5939927 -0.5209172
-0.7652663 -0.9973146 2.777843e-08 -0.5982812 -0.799706 0.05029886 120 120 120 255 -0.7652663 -0.9973146
-0.5256776 -0.8703204 -0.25 0.01264626 0.01444313 -0.9998158 120 120 120 255 -0.5256776 -0.8703204
-0.6964939 -1.013246 -0.1230233 -0.512406 -0.7207262 -0.4668983 120 120 120 255 -0.6964939 -1.013246
-0.4383541 -1.058279 0.2172868 -0.1944001 -0.4788244 0.8561167 120 120 120 255 -0.4383541 -1.058279
-0.3458709 -0.7117758 -0.1241673 0.4272768 0.7875353 -0.4440976 120 120 120 255 -0.3458709 -0.7117758
-0.4291889 -0.7785061 -0.2159949 0.2403467 0.4932922 -0.8360001 120 120 120 255 -0.4291889 -0.7785061
-0.453366 -1.048901 -0.21745 -0.1860961 -0.4552706 -0.8706876 120 120 120 255 -0.453366 -1.048901
-0.468637 -1.131388 0.1253724 -0.3209491 -0.8388146 0.439752 120 120 120 255 -0.468637 -1.131388
-0.3133591 -0.7226368 0.1247924 0.3634543 0.7861499 0.4998694 120 120 120 255 -0.3133591 -0.7226368
-0.2508254 -0.7144437 0.00243997 0.2956874 0.9092916 -0.2928441 120 120 120 255 -0.2508254 -0.7144437
-0.4026539 -1.186181 4.636152e-08 -0.3364716 -0.939961 -0.0570998 120 120 120 255 -0.4026539 -1.186181
-0.1713378 -1.210337 -0.127605 -0.1441543 -0.8558748 -0.496687 120 120 120 255 -0.1713378 -1.210337
-0.07592553 -1.25069 0.001683982 -0.06089016 -0.9980363 0.01469296 120 120 120 255 -0.07592553 -1.25069
-0.05535553 -0.8799728 0.2157011 0.03977036 0.5259991 0.8495547 120 120 120 255 -0.05535553 -0.8799728
-2.394324e-07 -0.7887102 0.1247601 -0.04164214 0.8870642 0.4597642 120 120 120 255 -2.394324e-07 -0.7887102
-0.2508254 -0.7144437 0.00243997 0.2892289 0.9158826 0.2783985 120 120 120 255 -0.2508254 -0.7144437
-0.04612808 -0.7834559 -0.1241275 0.07544121 0.8788895 -0.4710222 120 120 120 255 -0.04612808 -0.7834559
0.06620597 -1.010114 -0.25 0.01167375 -0.0203562 -0.9997247 120 120 120 255 0.06620597 -1.010114
0.0404365 -0.7503675 -8.173616e-09 -0.05109002 0.9591576 0.2782202 120 120 120 255 0.0404365 -0.7503675
0.0404365 -0.7503675 -8.173616e-09 -0.08243794 0.9566901 -0.2791917 120 120 120 255 0.0404365 -0.7503675
0.1479579 -1.123855 -0.2155935 0.08094054 -0.534448 -0.8413169 120 120 120 255 0.1479579 -1.123855
0.2277282 -1.197711 -0.1239722 0.1401894 -0.8785763 -0.4565639 120 120 120 255 0.2277282 -1.197711
0.4983163 -0.8850627 0.2496983 -0.03950701 0.0705319 0.9967269 120 120 120 255 0.4983163 -0.8850627
-0.2560478 -0.9998443 0.25044 0.02925002 0.02831316 0.9991711 120 120 120 255 -0.2560478 -0.9998443
0.3921054 -0.7951119 0.2173677 -0.2546954 0.5263175 0.811246 120 120 120 255 0.3921054 -0.7951119
0.3298266 -0.6830873 -0.00259589 -0.4226102 0.8694483 0.2558522 120 120 120 255 0.3298266 -0.6830873
0.3298266 -0.6830873 -0.00259589 -0.43104 0.8559499 -0.2855772 120 120 120 255 0.3298266 -0.6830873
0.3150273 -0.7317807 -0.1262052 -0.3730713 0.8012756 -0.4677342 120 120 120 255 0.3150273 -0.7317807
0.5595919 -1.121092 0.001683938 0.4253554 -0.9006687 0.08870509 120 120 120 255 0.5595919 -1.121092
0.09655769 -1.225744 0.1230232 0.09343161 -0.8671641 0.4891799 120 120 120 255 0.09655769 -1.225744
0.2526166 -1.226309 -0.001663938 0.2240602 -0.9721314 -0.06897571 120 120 120 255 0.2526166 -1.226309
0.6734764 -1.024294 0.1287424 0.4726884 -0.7295402 0.4943044 120 120 120 255 0.6734764 -1.024294
0.242412 -1.110133 0.2168093 0.1146571 -0.490167 0.8640544 120 120 120 255 0.242412 -1.110133
0.7105579 -0.8938957 -0.2181995 0.3315353 -0.3759724 -0.8652914 120 120 120 255 0.7105579 -0.8938957
0.5939666 -1.06904 -0.1253224 0.4116962 -0.7792324 -0.4725495 120 120 120 255 0.5939666 -1.06904
0.5796099 -0.6644312 -0.2157011 -0.362413 0.44147 -0.8208295 120 120 120 255 0.5796099 -0.6644312
0.6830772 -0.7618244 -0.2496296 -0.03682879 0.05402865 -0.99786 120 120 120 255 0.6830772 -0.7618244
0.1318714 -0.8798226 -0.216646 -0.08940032 0.5231946 -0.8475111 120 120 120 255 0.1318714 -0.8798226
0.7326533 -0.4895438 0.2151579 -0.4439143 0.3000487 0.8443405 120 120 120 255 0.7326533 -0.4895438
0.5866041 -0.5213699 0.1241275 -0.6207305 0.6074786 0.4956446 120 120 120 255 0.5866041 -0.5213699
0.3494307 -0.7085763 0.1245422 -0.3730374 0.7806518 0.5014239 120 120 120 255 0.3494307 -0.7085763
0.5983883 -0.4591604 4.52004e-09 -0.708891 0.6608176 -0.2465634 120 120 120 255 0.5983883 -0.4591604
0.6273425 -0.4763184 -0.1245415 -0.6996194 0.5042998 -0.5061764 120 120 120 255 0.6273425 -0.4763184
0.9069637 -0.8142118 -0.1250909 0.6556047 -0.5943177 -0.4657993 120 120 120 255 0.9069637 -0.8142118
0.8366612 -0.9319718 2.064176e-08 0.6727991 -0.7391927 0.03058707 120 120 120 255 0.8366612 -0.9319718
1.095034 -0.5554609 0.1290572 0.7559486 -0.3985472 0.5193283 120 120 120 255 1.095034 -0.5554609
0.7639921 -0.84201 0.2161669 0.3365445 -0.354121 0.8725458 120 120 120 255 0.7639921 -0.84201
1.042659 -0.4318838 0.2176646 0.4870199 -0.182234 0.8541676 120 120 120 255 1.042659 -0.4318838
0.747869 -0.2587343 0.1241673 -0.8404991 0.2858762 0.4602565 120 120 120 255 0.747869 -0.2587343
0.5983883 -0.4591604 4.52004e-09 -0.7765425 0.5701874 0.2680823 120 120 120 255 0.5983883 -0.4591604
0.8137772 -0.3370774 -0.2164005 -0.4831941 0.2107052 -0.8497805 120 120 120 255 0.8137772 -0.3370774
1.12475 -0.4787576 -0.127605 0.7724323 -0.3483289 -0.5310512 120 120 120 255 1.12475 -0.4787576
1.045758 -0.6885053 -0.00166394 0.835537 -0.547027 -0.05137585 120 120 120 255 1.045758 -0.6885053
1.188423 -0.397041 0.001683911 0.9592665 -0.2820309 0.01632252 120 120 120 255 1.188423 -0.397041
0.7097065 -0.2463129 0.000998379 -0.8976045 0.3529611 -0.2640544 120 120 120 255 0.7097065 -0.2463129
0.7581592 -0.2086796 -0.1234288 -0.8513138 0.1974349 -0.486091 120 120 120 255 0.7581592 -0.2086796
1.08261 -0.3451311 -0.2168092 0.4672087 -0.1397153 -0.8730382 120 120 120 255 1.08261 -0.3451311
0.754625 -0.005378118 -0.001834304 -0.9637008 0.03657792 0.2644671 120 120 120 255 0.754625 -0.005378118
0.7097065 -0.2463129 0.000998379 -0.898169 0.3120033 0.3097524 120 120 120 255 0.7097065 -0.2463129
0.7117082 0.2415926 1.14316e-08 -0.903612 -0.3168131 0.2882964 120 120 120 255 0.7117082 0.2415926
-0.3771265 0.6532017 -1.02604e-08 0.5111956 -0.8131443 0.2783442 120 120 120 255 -0.3771265 0.6532017
-0.7161469 0.3367193 -0.1244663 0.8014275 -0.347647 -0.4866781 120 120 120 255 -0.7161469 0.3367193
-0.7297931 0.1882136 -0.001727876 0.9274854 -0.2378731 0.2884219 120 120 120 255 -0.7297931 0.1882136
-0.7441391 -0.1400008 0.002439971 0.9160739 -0.03496806 0.3994819 120 120 120 255 -0.7441391 -0.1400008
3 0 1 2 
3 3 4 5 
3 6 7 8 
3 9 10 11 
3 12 13 14 
3 13 0 14 
3 0 15 1 
3 15 16 1 
3 17 3 16 
3 18 19 20 
3 21 9 7 
3 22 21 6 
3 23 13 12 
3 24 25 26 
3 27 3 17 
3 28 29 19 
3 22 30 21 
3 30 31 21 
3 31 32 10 
3 33 25 24 
3 27 34 3 
3 34 35 3 
3 36 30 22 
3 37 38 23 
3 39 24 38 
3 33 40 25 
3 40 27 25 
3 41 34 27 
3 35 42 28 
3 42 43 28 
3 44 40 33 
3 41 45 34 
3 45 46 34 
3 36 47 30 
3 47 48 30 
3 48 49 32 
3 49 37 32 
3 50 33 39 
3 51 45 41 
3 46 52 42 
3 52 53 42 
3 54 50 37 
3 55 40 44 
3 56 51 40 
3 54 57 50 
3 50 55 44 
3 58 52 46 
3 59 60 47 
3 61 56 55 
3 62 53 52 
3 63 59 64 
3 56 65 51 
3 65 45 51 
3 66 58 45 
3 67 68 59 
3 69 70 49 
3 71 72 61 
3 70 73 57 
3 73 61 57 
3 74 67 63 
3 75 73 70 
3 76 72 71 
3 66 77 58 
3 77 78 58 
3 67 79 68 
3 79 69 68 
3 76 80 72 
3 80 81 72 
3 79 82 69 
3 82 75 69 
3 83 80 76 
3 84 85 78 
3 75 86 73 
3 86 76 73 
3 83 87 80 
3 87 81 80 
3 88 66 81 
3 66 89 77 
3 89 84 77 
3 90 82 79 
3 82 91 75 
3 91 86 75 
3 92 87 83 
3 93 89 66 
3 91 94 86 
3 86 92 83 
3 95 96 97 
3 98 99 100 
3 101 102 103 
3 104 105 106 
3 107 108 109 
3 101 110 102 
3 110 111 102 
3 108 112 113 
3 99 114 115 
3 114 101 115 
3 116 117 104 
3 117 105 104 
3 118 98 112 
3 110 119 111 
3 120 121 122 
3 123 124 108 
3 124 112 108 
3 125 126 98 
3 114 127 101 
3 127 128 101 
3 129 125 118 
3 117 130 105 
3 130 123 105 
3 131 118 124 
3 125 132 126 
3 132 114 126 
3 133 134 121 
3 135 131 123 
3 129 136 125 
3 136 132 125 
3 127 137 128 
3 137 119 128 
3 138 133 120 
3 139 136 129 
3 135 140 131 
3 140 139 131 
3 141 136 139 
3 142 143 137 
3 143 144 137 
3 145 134 133 
3 134 146 130 
3 146 135 130 
3 143 147 144 
3 148 145 138 
3 149 140 135 
3 150 141 140 
3 151 142 152 
3 153 143 142 
3 143 154 147 
3 155 156 148 
3 157 158 159 
3 160 161 158 
3 146 162 149 
3 149 163 150 
3 163 159 150 
3 164 165 166 
3 151 167 153 
3 153 168 169 
3 168 154 169 
3 170 156 155 
3 171 164 156 
3 162 172 163 
3 172 173 163 
3 173 174 160 
3 174 175 160 
3 175 5 151 
3 5 167 151 
3 176 5 175 
3 177 178 168 
3 171 179 164 
3 179 165 164 
3 162 180 172 
3 180 181 172 
3 182 174 181 
3 183 171 170 
3 184 179 171 
3 11 185 165 
3 4 177 167 
3 182 1 174 
3 174 16 176 
3 177 186 187 
3 8 184 183 
3 14 182 180 
3 20 186 177 
3 8 7 184 
3 7 9 184 
3 14 0 2 
3 16 3 5 
3 3 18 4 
3 4 18 20 
3 20 188 186 
3 11 10 12 
3 0 26 15 
3 15 17 16 
3 20 19 188 
3 6 21 7 
3 13 26 0 
3 19 29 188 
3 21 31 9 
3 9 31 10 
3 26 25 15 
3 15 25 17 
3 10 23 12 
3 23 38 13 
3 13 38 26 
3 25 27 17 
3 18 28 19 
3 38 24 26 
3 3 35 18 
3 18 35 28 
3 30 48 31 
3 31 48 32 
3 10 32 23 
3 28 43 29 
3 32 37 23 
3 37 39 38 
3 39 33 24 
3 40 41 27 
3 34 46 35 
3 35 46 42 
3 42 53 43 
3 36 64 47 
3 47 60 48 
3 48 60 49 
3 37 50 39 
3 50 44 33 
3 40 51 41 
3 49 54 37 
3 55 56 40 
3 50 57 55 
3 45 58 46 
3 64 59 47 
3 58 62 52 
3 62 189 53 
3 59 68 60 
3 60 68 49 
3 49 70 54 
3 54 70 57 
3 57 61 55 
3 61 72 56 
3 56 72 65 
3 65 66 45 
3 63 67 59 
3 68 69 49 
3 58 78 62 
3 62 78 189 
3 73 71 61 
3 72 81 65 
3 65 81 66 
3 78 85 189 
3 69 75 70 
3 74 190 67 
3 67 190 79 
3 73 76 71 
3 77 84 78 
3 84 191 85 
3 74 97 190 
3 86 83 76 
3 87 88 81 
3 190 90 79 
3 88 93 66 
3 97 96 190 
3 190 96 90 
3 86 94 92 
3 84 192 191 
3 113 98 100 
3 115 101 103 
3 106 105 107 
3 109 108 113 
3 113 112 98 
3 98 126 99 
3 99 126 114 
3 122 121 116 
3 116 121 117 
3 105 123 107 
3 107 123 108 
3 101 128 110 
3 110 128 119 
3 124 118 112 
3 118 125 98 
3 121 134 117 
3 117 134 130 
3 123 131 124 
3 131 129 118 
3 132 152 114 
3 114 152 127 
3 120 133 121 
3 130 135 123 
3 137 144 119 
3 131 139 129 
3 152 142 127 
3 127 142 137 
3 141 158 136 
3 136 158 132 
3 138 145 133 
3 145 166 134 
3 134 166 146 
3 140 141 139 
3 158 161 132 
3 132 161 152 
3 146 149 135 
3 141 159 158 
3 148 156 145 
3 145 156 166 
3 149 150 140 
3 150 159 141 
3 161 151 152 
3 151 153 142 
3 153 169 143 
3 143 169 154 
3 157 160 158 
3 166 165 146 
3 146 165 162 
3 149 162 163 
3 163 157 159 
3 160 175 161 
3 161 175 151 
3 156 164 166 
3 157 173 160 
3 163 173 157 
3 153 167 168 
3 168 178 154 
3 170 171 156 
3 173 181 174 
3 172 181 173 
3 174 176 175 
3 167 177 168 
3 165 185 162 
3 162 185 180 
3 177 187 178 
3 183 184 171 
3 179 11 165 
3 180 182 181 
3 5 4 167 
3 182 2 1 
3 174 1 16 
3 176 16 5 
3 184 9 179 
3 179 9 11 
3 185 14 180 
3 14 2 182 
3 4 20 177 
3 11 12 185 
3 185 12 14 
